<svg width="471" height="22" viewBox="0 0 471 22" fill="none" xmlns="http://www.w3.org/2000/svg">
<path d="M10.32 12.904C10.32 12.904 10.296 13.008 10.248 13.216C10.2 13.424 10.096 13.68 9.936 13.984C9.776 14.288 9.528 14.6 9.192 14.92C8.872 15.224 8.432 15.48 7.872 15.688C7.312 15.896 6.608 16 5.76 16C4.736 16 3.896 15.84 3.24 15.52C2.6 15.2 2.096 14.768 1.728 14.224C1.36 13.664 1.096 13.048 0.936 12.376C0.776 11.688 0.68 10.976 0.648 10.24C0.632 9.504 0.64 8.792 0.672 8.104C0.704 7.4 0.728 6.768 0.744 6.208C0.76 5.36 0.912 4.68 1.2 4.168C1.504 3.64 1.872 3.24 2.304 2.968C2.752 2.68 3.216 2.48 3.696 2.368C4.176 2.256 4.608 2.192 4.992 2.176C5.776 2.128 6.568 2.264 7.368 2.584C8.168 2.904 8.816 3.496 9.312 4.36C9.568 4.792 9.64 5.136 9.528 5.392C9.432 5.632 9.248 5.808 8.976 5.92C8.72 6.032 8.456 6.104 8.184 6.136C7.912 6.168 7.736 6.184 7.656 6.184C7.144 6.184 6.752 6.112 6.48 5.968C6.224 5.824 6.04 5.656 5.928 5.464C5.832 5.256 5.784 5.072 5.784 4.912C5.784 4.784 5.744 4.656 5.664 4.528C5.6 4.384 5.512 4.288 5.4 4.24C5.304 4.192 5.2 4.248 5.088 4.408C4.992 4.568 4.912 4.88 4.848 5.344C4.8 5.712 4.768 6.2 4.752 6.808C4.752 7.4 4.76 8.032 4.776 8.704C4.792 9.36 4.808 9.984 4.824 10.576C4.856 11.168 4.88 11.656 4.896 12.04C4.928 12.408 4.944 12.592 4.944 12.592C4.944 12.592 4.96 12.712 4.992 12.952C5.04 13.192 5.128 13.432 5.256 13.672C5.4 13.912 5.608 14.04 5.88 14.056C6.088 14.072 6.248 14.008 6.36 13.864C6.488 13.704 6.576 13.528 6.624 13.336C6.688 13.128 6.728 12.952 6.744 12.808C6.76 12.648 6.768 12.568 6.768 12.568C6.768 12.568 6.76 12.504 6.744 12.376C6.744 12.248 6.784 12.104 6.864 11.944C6.944 11.768 7.112 11.624 7.368 11.512C7.624 11.384 8.016 11.328 8.544 11.344C9.072 11.36 9.464 11.448 9.72 11.608C9.976 11.752 10.144 11.928 10.224 12.136C10.304 12.328 10.336 12.504 10.32 12.664C10.32 12.824 10.32 12.904 10.32 12.904ZM16.3035 6.256C16.8955 6.208 17.3515 6.272 17.6715 6.448C17.9915 6.624 18.1835 6.728 18.2475 6.76C18.4075 6.84 18.5515 6.928 18.6795 7.024C18.8235 7.12 18.8955 7.168 18.8955 7.168C18.8955 7.168 19.0155 7.208 19.2555 7.288C19.4955 7.368 19.7755 7.56 20.0955 7.864C20.4155 8.152 20.7115 8.608 20.9835 9.232C21.2555 9.856 21.4155 10.704 21.4635 11.776C21.4955 12.496 21.3835 13.104 21.1275 13.6C20.8715 14.08 20.5275 14.48 20.0955 14.8C19.6795 15.104 19.2235 15.344 18.7275 15.52C18.2475 15.68 17.7835 15.792 17.3355 15.856C16.9035 15.92 16.5435 15.96 16.2555 15.976C15.9835 15.992 15.8475 16 15.8475 16C15.8475 16 15.6875 16 15.3675 16C15.0635 16 14.6795 15.952 14.2155 15.856C13.7515 15.744 13.2875 15.536 12.8235 15.232C12.3755 14.912 11.9995 14.448 11.6955 13.84C11.4075 13.232 11.2795 12.424 11.3115 11.416C11.3435 10.408 11.5275 9.584 11.8635 8.944C12.2155 8.288 12.6315 7.776 13.1115 7.408C13.6075 7.04 14.0955 6.776 14.5755 6.616C15.0715 6.456 15.4795 6.36 15.7995 6.328C16.1355 6.28 16.3035 6.256 16.3035 6.256ZM16.3995 8.608C16.3995 8.608 16.2955 8.736 16.0875 8.992C15.8955 9.248 15.6955 9.608 15.4875 10.072C15.2955 10.536 15.1995 11.08 15.1995 11.704C15.1995 12.312 15.2715 12.792 15.4155 13.144C15.5595 13.496 15.7115 13.752 15.8715 13.912C16.0475 14.056 16.1835 14.128 16.2795 14.128C16.3755 14.128 16.5275 14.088 16.7355 14.008C16.9595 13.912 17.1595 13.704 17.3355 13.384C17.5115 13.064 17.5915 12.56 17.5755 11.872C17.5595 11.296 17.4955 10.832 17.3835 10.48C17.2875 10.128 17.1515 9.816 16.9755 9.544C16.8155 9.256 16.6235 8.944 16.3995 8.608ZM23.3803 19.432L22.5883 9.688C22.5883 9.688 22.5483 9.624 22.4683 9.496C22.4043 9.368 22.3403 9.208 22.2763 9.016C22.2123 8.808 22.1963 8.608 22.2283 8.416C22.2603 8.224 22.3803 8.064 22.5883 7.936C22.7643 7.84 23.0843 7.656 23.5483 7.384C24.0283 7.096 24.6123 6.816 25.3003 6.544C25.9883 6.272 26.7243 6.08 27.5083 5.968C28.3083 5.856 29.1083 5.904 29.9083 6.112C30.7243 6.304 31.4923 6.744 32.2123 7.432C32.9163 8.104 33.3563 8.848 33.5323 9.664C33.7083 10.48 33.6923 11.28 33.4843 12.064C33.2923 12.848 32.9643 13.536 32.5003 14.128C32.0523 14.72 31.5403 15.136 30.9643 15.376C30.1803 15.696 29.5083 15.896 28.9483 15.976C28.3883 16.04 27.9563 16.056 27.6523 16.024C27.3483 16.008 27.1963 16 27.1963 16L27.4363 19.624C27.4363 19.624 27.4363 19.704 27.4363 19.864C27.4363 20.024 27.3883 20.208 27.2923 20.416C27.2123 20.624 27.0363 20.8 26.7643 20.944C26.4923 21.104 26.0923 21.184 25.5643 21.184C24.8603 21.168 24.3483 21.056 24.0283 20.848C23.7243 20.64 23.5403 20.4 23.4763 20.128C23.4123 19.856 23.3803 19.624 23.3803 19.432ZM26.4523 8.608L26.9803 13.816C26.9803 13.816 27.1163 13.816 27.3883 13.816C27.6603 13.816 27.9643 13.768 28.3003 13.672C28.6523 13.576 28.9563 13.392 29.2123 13.12C29.4683 12.848 29.5803 12.44 29.5483 11.896C29.5163 11.176 29.4363 10.536 29.3083 9.976C29.1803 9.4 28.9883 8.96 28.7323 8.656C28.4763 8.352 28.1243 8.24 27.6763 8.32C27.2283 8.4 26.9163 8.464 26.7403 8.512C26.5803 8.544 26.4923 8.568 26.4763 8.584C26.4603 8.6 26.4523 8.608 26.4523 8.608ZM36.0456 14.392C36.0456 14.376 35.9816 14.28 35.8536 14.104C35.7416 13.912 35.6056 13.6 35.4456 13.168C35.2856 12.72 35.1336 12.104 34.9896 11.32C34.8456 10.52 34.7336 9.512 34.6536 8.296C34.6216 7.656 34.7096 7.2 34.9176 6.928C35.1416 6.656 35.4216 6.488 35.7576 6.424C36.0936 6.344 36.4136 6.304 36.7176 6.304C36.7176 6.304 36.8056 6.304 36.9816 6.304C37.1736 6.288 37.3896 6.304 37.6296 6.352C37.8696 6.384 38.0776 6.488 38.2536 6.664C38.4456 6.824 38.5496 7.08 38.5656 7.432C38.5816 7.72 38.5976 8.112 38.6136 8.608C38.6296 9.104 38.6536 9.64 38.6856 10.216C38.7336 10.776 38.8056 11.32 38.9016 11.848C38.9976 12.376 39.1176 12.816 39.2616 13.168C39.4216 13.504 39.6216 13.688 39.8616 13.72C40.1016 13.752 40.2616 13.616 40.3416 13.312C40.4216 12.992 40.4456 12.592 40.4136 12.112C40.3976 11.632 40.3496 11.152 40.2696 10.672C40.2056 10.176 40.1416 9.76 40.0776 9.424C40.0136 9.088 39.9816 8.92 39.9816 8.92C39.9816 8.92 39.9496 8.824 39.8856 8.632C39.8216 8.424 39.7976 8.192 39.8136 7.936C39.8296 7.68 39.9416 7.448 40.1496 7.24C40.3576 7.032 40.7256 6.92 41.2536 6.904C41.9736 6.872 42.5096 6.944 42.8616 7.12C43.2296 7.296 43.4776 7.52 43.6056 7.792C43.7496 8.064 43.8376 8.344 43.8696 8.632C43.9016 8.792 43.9576 9.176 44.0376 9.784C44.1336 10.376 44.2376 11.08 44.3496 11.896C44.4616 12.696 44.5496 13.528 44.6136 14.392C44.6776 15.24 44.7016 16.016 44.6856 16.72C44.6696 17.424 44.5736 17.96 44.3976 18.328C44.1256 18.92 43.7496 19.464 43.2696 19.96C42.8056 20.472 42.1816 20.864 41.3976 21.136C40.6296 21.424 39.6456 21.536 38.4456 21.472C37.5496 21.424 36.8296 21.28 36.2856 21.04C35.7416 20.816 35.3336 20.568 35.0616 20.296C34.7896 20.04 34.6056 19.808 34.5096 19.6C34.4296 19.408 34.3896 19.312 34.3896 19.312C34.3896 19.312 34.3576 19.224 34.2936 19.048C34.2456 18.872 34.2376 18.664 34.2696 18.424C34.3176 18.2 34.4696 18 34.7256 17.824C34.9816 17.664 35.4296 17.592 36.0696 17.608C36.7096 17.624 37.1736 17.68 37.4616 17.776C37.7496 17.888 37.9336 18.008 38.0136 18.136C38.0936 18.264 38.1176 18.376 38.0856 18.472C38.0696 18.568 38.0616 18.616 38.0616 18.616C38.0616 18.616 38.0616 18.704 38.0616 18.88C38.0616 19.056 38.1176 19.224 38.2296 19.384C38.3576 19.544 38.5816 19.616 38.9016 19.6C39.2376 19.568 39.5976 19.416 39.9816 19.144C40.3656 18.888 40.6536 18.496 40.8456 17.968C41.0536 17.44 41.0376 16.784 40.7976 16C40.7976 16 40.6456 16.024 40.3416 16.072C40.0376 16.12 39.6376 16.12 39.1416 16.072C38.6616 16.04 38.1416 15.904 37.5816 15.664C37.0376 15.408 36.5256 14.984 36.0456 14.392ZM46.7475 14.368C46.7475 14.192 46.7235 13.888 46.6755 13.456C46.6275 13.024 46.5635 12.536 46.4835 11.992C46.4195 11.432 46.3475 10.88 46.2675 10.336C46.1875 9.776 46.0995 9.28 46.0035 8.848C45.9235 8.4 45.8515 8.08 45.7875 7.888C45.6275 7.408 45.7155 7.072 46.0515 6.88C46.4035 6.672 46.8915 6.536 47.5155 6.472C48.1395 6.408 48.5875 6.456 48.8595 6.616C49.1475 6.76 49.2915 6.832 49.2915 6.832C49.5315 6.592 49.9235 6.424 50.4675 6.328C51.0275 6.232 51.6115 6.192 52.2195 6.208C53.0035 6.224 53.5715 6.344 53.9235 6.568C54.2755 6.792 54.4515 7.032 54.4515 7.288C54.4515 7.48 54.4275 7.624 54.3795 7.72C54.3315 7.816 54.1395 7.912 53.8035 8.008C53.4835 8.088 52.8995 8.232 52.0515 8.44C51.5555 8.552 51.1875 8.824 50.9475 9.256C50.7075 9.672 50.5555 10.16 50.4915 10.72C50.4435 11.264 50.4435 11.808 50.4915 12.352C50.5395 12.88 50.5955 13.328 50.6595 13.696C50.7235 14.048 50.7555 14.24 50.7555 14.272C50.7555 14.304 50.7635 14.416 50.7795 14.608C50.8115 14.784 50.7875 14.984 50.7075 15.208C50.6435 15.416 50.4755 15.6 50.2035 15.76C49.9315 15.92 49.4995 16 48.9075 16C48.3155 16 47.8675 15.92 47.5635 15.76C47.2595 15.584 47.0515 15.392 46.9395 15.184C46.8275 14.976 46.7635 14.792 46.7475 14.632C46.7475 14.456 46.7475 14.368 46.7475 14.368ZM57.6724 5.896C57.6724 5.896 57.5684 5.896 57.3604 5.896C57.1524 5.88 56.9044 5.832 56.6164 5.752C56.3444 5.656 56.0964 5.488 55.8724 5.248C55.6484 5.008 55.5284 4.648 55.5124 4.168C55.4964 3.688 55.5684 3.336 55.7284 3.112C55.8884 2.872 56.0884 2.712 56.3284 2.632C56.5684 2.536 56.8004 2.488 57.0244 2.488C57.2484 2.472 57.4084 2.456 57.5044 2.44C57.6004 2.424 57.7604 2.44 57.9844 2.488C58.2084 2.52 58.4404 2.608 58.6804 2.752C58.9204 2.88 59.1204 3.08 59.2804 3.352C59.4404 3.608 59.5044 3.952 59.4724 4.384C59.4404 4.8 59.3284 5.12 59.1364 5.344C58.9604 5.552 58.7524 5.696 58.5124 5.776C58.2884 5.84 58.0884 5.88 57.9124 5.896C57.7524 5.896 57.6724 5.896 57.6724 5.896ZM56.8324 14.512L56.2564 9.04C56.2564 9.04 56.2164 8.96 56.1364 8.8C56.0724 8.624 56.0244 8.504 55.9924 8.44C55.9764 8.392 55.9444 8.296 55.8964 8.152C55.8644 7.992 55.9044 7.824 56.0164 7.648C56.1444 7.472 56.4164 7.344 56.8324 7.264C57.2644 7.184 57.7124 7.16 58.1764 7.192C58.6404 7.224 59.0484 7.368 59.4004 7.624C59.7684 7.864 59.9924 8.288 60.0724 8.896C60.1364 9.344 60.2004 9.88 60.2644 10.504C60.3284 11.112 60.3844 11.712 60.4324 12.304C60.4964 12.88 60.5444 13.368 60.5764 13.768C60.6244 14.152 60.6484 14.344 60.6484 14.344C60.6484 14.344 60.6564 14.432 60.6724 14.608C60.6884 14.768 60.6644 14.96 60.6004 15.184C60.5364 15.392 60.3764 15.584 60.1204 15.76C59.8804 15.92 59.4884 16 58.9444 16C58.4004 16 57.9844 15.928 57.6964 15.784C57.4084 15.624 57.2004 15.448 57.0724 15.256C56.9604 15.064 56.8884 14.896 56.8564 14.752C56.8404 14.592 56.8324 14.512 56.8324 14.512ZM69.1103 15.4C69.1103 15.4 68.9903 15.448 68.7503 15.544C68.5263 15.64 68.2223 15.744 67.8383 15.856C67.4543 15.952 67.0223 16 66.5423 16C66.1903 16 65.7503 15.952 65.2223 15.856C64.7103 15.744 64.1983 15.536 63.6863 15.232C63.1743 14.928 62.7503 14.488 62.4143 13.912C62.0943 13.336 61.9423 12.568 61.9583 11.608C61.9903 10.648 62.2063 9.832 62.6063 9.16C63.0063 8.472 63.5183 7.904 64.1423 7.456C64.7663 7.008 65.4223 6.672 66.1103 6.448C66.8143 6.224 67.4703 6.096 68.0783 6.064C68.8943 6.016 69.5823 6.104 70.1423 6.328C70.7023 6.536 71.1263 6.784 71.4143 7.072C71.7023 7.344 71.8463 7.568 71.8463 7.744C71.8463 7.872 71.9023 8.168 72.0143 8.632C72.1263 9.096 72.2463 9.672 72.3743 10.36C72.5183 11.032 72.6463 11.776 72.7583 12.592C72.8703 13.392 72.9343 14.208 72.9503 15.04C72.9663 15.872 72.9423 16.648 72.8783 17.368C72.8303 18.104 72.6863 18.752 72.4463 19.312C72.2223 19.888 71.8383 20.336 71.2943 20.656C70.7503 20.992 69.9983 21.168 69.0383 21.184C67.7423 21.2 66.6463 21.048 65.7503 20.728C64.8703 20.424 64.1823 20.072 63.6863 19.672C63.1903 19.288 62.8943 18.984 62.7983 18.76C62.7023 18.536 62.6543 18.312 62.6543 18.088C62.6703 17.864 62.7903 17.68 63.0143 17.536C63.2543 17.392 63.6543 17.32 64.2143 17.32C64.7743 17.32 65.1903 17.368 65.4623 17.464C65.7503 17.576 65.9583 17.696 66.0863 17.824C66.2143 17.952 66.3263 18.056 66.4223 18.136C66.5663 18.248 66.7823 18.432 67.0703 18.688C67.3743 18.96 67.7023 19.096 68.0543 19.096C68.2943 19.096 68.5023 18.928 68.6783 18.592C68.8543 18.256 68.9823 17.808 69.0623 17.248C69.1423 16.688 69.1583 16.072 69.1103 15.4ZM68.5103 7.816C67.9663 7.864 67.4863 8.104 67.0703 8.536C66.6703 8.968 66.3503 9.488 66.1103 10.096C65.8703 10.704 65.7343 11.304 65.7023 11.896C65.6863 12.488 65.7983 12.984 66.0383 13.384C66.2783 13.768 66.6703 13.96 67.2143 13.96C67.7583 13.96 68.1663 13.776 68.4383 13.408C68.7263 13.04 68.9103 12.592 68.9903 12.064C69.0863 11.52 69.1183 10.968 69.0863 10.408C69.0703 9.832 69.0303 9.336 68.9663 8.92C68.9023 8.504 68.8703 8.24 68.8703 8.128C68.8543 7.952 68.7903 7.856 68.6783 7.84C68.5663 7.824 68.5103 7.816 68.5103 7.816ZM74.3629 13.936L74.0749 2.08C74.0749 2.08 74.0749 2.016 74.0749 1.888C74.0909 1.76 74.1469 1.608 74.2429 1.432C74.3389 1.256 74.5069 1.104 74.7469 0.975999C75.0029 0.848 75.3709 0.784 75.8509 0.784C76.4909 0.784 76.9629 0.856 77.2669 1C77.5869 1.144 77.7949 1.328 77.8909 1.552C77.9869 1.776 78.0269 2 78.0109 2.224C77.9949 2.384 77.9869 2.688 77.9869 3.136C78.0029 3.568 78.0109 4.032 78.0109 4.528C78.0269 5.008 78.0349 5.424 78.0349 5.776C78.0509 6.128 78.0589 6.304 78.0589 6.304C78.0589 6.304 78.2189 6.264 78.5389 6.184C78.8749 6.104 79.3069 6.048 79.8349 6.016C80.3629 5.984 80.9229 6.048 81.5149 6.208C82.1069 6.352 82.6669 6.656 83.1949 7.12C83.3869 7.28 83.5389 7.576 83.6509 8.008C83.7789 8.44 83.8749 8.944 83.9389 9.52C84.0189 10.08 84.0749 10.664 84.1069 11.272C84.1389 11.864 84.1549 12.416 84.1549 12.928C84.1709 13.44 84.1709 13.856 84.1549 14.176C84.1549 14.496 84.1549 14.656 84.1549 14.656C84.1549 14.656 84.1549 14.728 84.1549 14.872C84.1549 15 84.1149 15.152 84.0349 15.328C83.9709 15.504 83.8269 15.664 83.6029 15.808C83.3789 15.936 83.0349 16 82.5709 16C81.9629 16 81.5469 15.928 81.3229 15.784C81.0989 15.64 80.9789 15.448 80.9629 15.208C80.9469 14.952 80.9389 14.672 80.9389 14.368C80.9389 14.192 80.9309 13.904 80.9149 13.504C80.8989 13.104 80.8829 12.664 80.8669 12.184C80.8509 11.688 80.8349 11.216 80.8189 10.768C80.8029 10.32 80.7869 9.952 80.7709 9.664C80.7549 9.376 80.7469 9.232 80.7469 9.232C80.7469 9.232 80.7309 9.136 80.6989 8.944C80.6829 8.736 80.6029 8.536 80.4589 8.344C80.3149 8.152 80.0749 8.064 79.7389 8.08C79.4829 8.096 79.2669 8.216 79.0909 8.44C78.9149 8.648 78.7709 8.912 78.6589 9.232C78.5629 9.536 78.4909 9.832 78.4429 10.12C78.3949 10.392 78.3709 10.592 78.3709 10.72C78.3709 10.848 78.3709 11.104 78.3709 11.488C78.3869 11.872 78.3949 12.288 78.3949 12.736C78.3949 13.168 78.3949 13.544 78.3949 13.864C78.4109 14.168 78.4189 14.32 78.4189 14.32C78.4189 14.32 78.4109 14.408 78.3949 14.584C78.3789 14.744 78.3149 14.936 78.2029 15.16C78.0909 15.384 77.8909 15.584 77.6029 15.76C77.3309 15.92 76.9309 16 76.4029 16C75.7949 16 75.3389 15.896 75.0349 15.688C74.7469 15.48 74.5549 15.24 74.4589 14.968C74.3789 14.696 74.3389 14.456 74.3389 14.248C74.3549 14.04 74.3629 13.936 74.3629 13.936ZM85.5604 2.896C85.5444 2.496 85.6644 2.176 85.9204 1.936C86.1764 1.68 86.7444 1.528 87.6244 1.48C88.2164 1.448 88.6484 1.52 88.9204 1.696C89.1924 1.872 89.3604 2.056 89.4244 2.248C89.5044 2.424 89.5444 2.512 89.5444 2.512L89.6884 4.648C89.6884 4.648 89.8164 4.648 90.0724 4.648C90.3444 4.648 90.6484 4.68 90.9844 4.744C91.3364 4.792 91.6404 4.896 91.8964 5.056C92.1684 5.216 92.3044 5.464 92.3044 5.8C92.3044 6.136 92.1764 6.384 91.9204 6.544C91.6644 6.704 91.3684 6.816 91.0324 6.88C90.6964 6.928 90.3924 6.952 90.1204 6.952C89.8644 6.952 89.7364 6.952 89.7364 6.952C89.7364 6.952 89.7364 7.136 89.7364 7.504C89.7524 7.856 89.7604 8.32 89.7604 8.896C89.7604 9.456 89.7684 10.056 89.7844 10.696C89.8004 11.336 89.8084 11.952 89.8084 12.544C89.8084 13.12 89.8084 13.608 89.8084 14.008C89.8244 14.392 89.8324 14.616 89.8324 14.68C89.8324 14.792 89.7924 14.952 89.7124 15.16C89.6484 15.368 89.4644 15.56 89.1604 15.736C88.8724 15.912 88.3924 16 87.7204 16C87.2244 16 86.8404 15.944 86.5684 15.832C86.2964 15.704 86.0964 15.568 85.9684 15.424C85.8564 15.264 85.7924 15.128 85.7764 15.016C85.7604 14.888 85.7524 14.824 85.7524 14.824L85.5604 2.896ZM99.4549 10.864C99.4549 9.92 99.7029 9.064 100.199 8.296C100.711 7.512 101.383 6.888 102.215 6.424C103.063 5.96 103.999 5.728 105.023 5.728C106.047 5.728 106.975 5.96 107.807 6.424C108.655 6.888 109.327 7.512 109.823 8.296C110.335 9.064 110.591 9.92 110.591 10.864C110.591 11.808 110.335 12.672 109.823 13.456C109.327 14.224 108.655 14.84 107.807 15.304C106.975 15.768 106.047 16 105.023 16C103.999 16 103.063 15.768 102.215 15.304C101.383 14.84 100.711 14.224 100.199 13.456C99.7029 12.672 99.4549 11.808 99.4549 10.864ZM101.159 10.84C101.159 11.64 101.335 12.368 101.687 13.024C102.039 13.68 102.503 14.208 103.079 14.608C103.655 14.992 104.303 15.184 105.023 15.184C105.727 15.184 106.367 14.992 106.943 14.608C107.535 14.208 107.999 13.68 108.335 13.024C108.687 12.368 108.863 11.64 108.863 10.84C108.863 10.056 108.687 9.336 108.335 8.68C107.999 8.024 107.535 7.504 106.943 7.12C106.367 6.72 105.727 6.52 105.023 6.52C104.303 6.52 103.655 6.72 103.079 7.12C102.503 7.504 102.039 8.024 101.687 8.68C101.335 9.336 101.159 10.056 101.159 10.84ZM106.511 10.528C106.047 10.528 105.759 10.456 105.647 10.312C105.551 10.152 105.503 10.056 105.503 10.024C105.503 9.992 105.471 9.912 105.407 9.784C105.343 9.64 105.231 9.568 105.071 9.568C104.911 9.568 104.759 9.728 104.615 10.048C104.487 10.352 104.415 10.656 104.399 10.96C104.383 11.248 104.439 11.536 104.567 11.824C104.695 12.112 104.871 12.256 105.095 12.256C105.303 12.256 105.431 12.224 105.479 12.16C105.527 12.08 105.551 12.04 105.551 12.04C105.551 12.04 105.567 12 105.599 11.92C105.647 11.84 105.759 11.76 105.935 11.68C106.111 11.6 106.407 11.56 106.823 11.56C107.239 11.576 107.487 11.64 107.567 11.752C107.647 11.864 107.655 11.976 107.591 12.088C107.543 12.2 107.519 12.256 107.519 12.256C107.519 12.256 107.415 12.344 107.207 12.52C107.015 12.696 106.735 12.872 106.367 13.048C105.999 13.224 105.551 13.312 105.023 13.312C104.239 13.312 103.615 13.096 103.151 12.664C102.703 12.232 102.463 11.624 102.431 10.84C102.415 10.312 102.535 9.872 102.791 9.52C103.063 9.152 103.399 8.864 103.799 8.656C104.215 8.448 104.631 8.336 105.047 8.32C105.447 8.288 105.823 8.368 106.175 8.56C106.527 8.736 106.815 8.952 107.039 9.208C107.279 9.464 107.407 9.696 107.423 9.904C107.455 10.112 107.391 10.264 107.231 10.36C107.087 10.44 106.935 10.488 106.775 10.504C106.615 10.52 106.527 10.528 106.511 10.528ZM119.895 7.096C119.847 7.096 119.719 7.096 119.511 7.096C119.303 7.096 119.071 7.048 118.815 6.952C118.559 6.856 118.343 6.68 118.167 6.424C117.991 6.152 117.911 5.752 117.927 5.224C117.959 4.168 118.375 3.352 119.175 2.776C119.975 2.2 121.015 1.92 122.295 1.936C122.935 1.936 123.567 2 124.191 2.128C124.831 2.24 125.407 2.432 125.919 2.704C126.431 2.976 126.839 3.352 127.143 3.832C127.463 4.296 127.623 4.896 127.623 5.632C127.623 6.224 127.471 6.864 127.167 7.552C126.863 8.224 126.487 8.896 126.039 9.568C125.591 10.24 125.135 10.856 124.671 11.416C124.223 11.96 123.839 12.4 123.519 12.736C123.215 13.072 123.055 13.24 123.039 13.24C123.055 13.24 123.199 13.224 123.471 13.192C123.743 13.144 124.055 13.096 124.407 13.048C124.759 13 125.071 12.96 125.343 12.928C125.615 12.88 125.751 12.856 125.751 12.856C125.751 12.856 125.839 12.856 126.015 12.856C126.207 12.856 126.423 12.88 126.663 12.928C126.919 12.96 127.151 13.04 127.359 13.168C127.567 13.296 127.687 13.496 127.719 13.768C127.799 14.312 127.719 14.672 127.479 14.848C127.255 15.008 126.959 15.12 126.591 15.184C126.447 15.2 126.135 15.24 125.655 15.304C125.191 15.368 124.647 15.44 124.023 15.52C123.415 15.6 122.815 15.68 122.223 15.76C121.647 15.824 121.167 15.88 120.783 15.928C120.399 15.976 120.207 16 120.207 16C120.207 16 120.079 16 119.823 16C119.583 15.984 119.319 15.936 119.031 15.856C118.759 15.776 118.575 15.632 118.479 15.424C118.335 15.104 118.279 14.848 118.311 14.656C118.359 14.448 118.583 14.12 118.983 13.672C119.143 13.496 119.399 13.2 119.751 12.784C120.103 12.352 120.487 11.856 120.903 11.296C121.335 10.72 121.751 10.12 122.151 9.496C122.551 8.856 122.879 8.24 123.135 7.648C123.391 7.04 123.527 6.496 123.543 6.016C123.559 5.216 123.511 4.664 123.399 4.36C123.287 4.056 123.159 3.888 123.015 3.856C122.887 3.808 122.799 3.784 122.751 3.784C122.703 3.784 122.591 3.816 122.415 3.88C122.239 3.928 122.063 4.032 121.887 4.192C121.727 4.336 121.647 4.568 121.647 4.888C121.647 5.192 121.647 5.504 121.647 5.824C121.647 6.128 121.527 6.392 121.287 6.616C121.063 6.84 120.599 7 119.895 7.096ZM133.768 2.224C133.768 2.224 133.936 2.232 134.272 2.248C134.608 2.264 135.024 2.352 135.52 2.512C136.016 2.656 136.52 2.936 137.032 3.352C137.544 3.752 137.976 4.336 138.328 5.104C138.696 5.872 138.904 6.888 138.952 8.152C139.016 10.152 138.88 11.728 138.544 12.88C138.208 14.016 137.672 14.824 136.936 15.304C136.2 15.768 135.264 16 134.128 16C132.432 16 131.112 15.416 130.168 14.248C129.224 13.064 128.752 11.192 128.752 8.632C128.752 7.352 128.888 6.296 129.16 5.464C129.432 4.632 129.8 3.984 130.264 3.52C130.728 3.056 131.256 2.728 131.848 2.536C132.456 2.328 133.096 2.224 133.768 2.224ZM133.936 4.144C133.824 4.176 133.696 4.216 133.552 4.264C133.424 4.312 133.296 4.464 133.168 4.72C133.056 4.976 132.952 5.408 132.856 6.016C132.776 6.624 132.72 7.496 132.688 8.632C132.656 9.928 132.68 10.952 132.76 11.704C132.84 12.44 132.96 12.968 133.12 13.288C133.296 13.592 133.504 13.752 133.744 13.768C133.936 13.784 134.112 13.736 134.272 13.624C134.448 13.512 134.6 13.28 134.728 12.928C134.872 12.576 134.976 12.056 135.04 11.368C135.12 10.68 135.16 9.768 135.16 8.632C135.16 7.496 135.096 6.624 134.968 6.016C134.856 5.392 134.712 4.952 134.536 4.696C134.376 4.424 134.232 4.264 134.104 4.216C133.992 4.168 133.936 4.144 133.936 4.144ZM141.879 7.096C141.831 7.096 141.703 7.096 141.495 7.096C141.287 7.096 141.055 7.048 140.799 6.952C140.543 6.856 140.327 6.68 140.151 6.424C139.975 6.152 139.895 5.752 139.911 5.224C139.943 4.168 140.359 3.352 141.159 2.776C141.959 2.2 142.999 1.92 144.279 1.936C144.919 1.936 145.551 2 146.175 2.128C146.815 2.24 147.391 2.432 147.903 2.704C148.415 2.976 148.823 3.352 149.127 3.832C149.447 4.296 149.607 4.896 149.607 5.632C149.607 6.224 149.455 6.864 149.151 7.552C148.847 8.224 148.471 8.896 148.023 9.568C147.575 10.24 147.119 10.856 146.655 11.416C146.207 11.96 145.823 12.4 145.503 12.736C145.199 13.072 145.039 13.24 145.023 13.24C145.039 13.24 145.183 13.224 145.455 13.192C145.727 13.144 146.039 13.096 146.391 13.048C146.743 13 147.055 12.96 147.327 12.928C147.599 12.88 147.735 12.856 147.735 12.856C147.735 12.856 147.823 12.856 147.999 12.856C148.191 12.856 148.407 12.88 148.647 12.928C148.903 12.96 149.135 13.04 149.343 13.168C149.551 13.296 149.671 13.496 149.703 13.768C149.783 14.312 149.703 14.672 149.463 14.848C149.239 15.008 148.943 15.12 148.575 15.184C148.431 15.2 148.119 15.24 147.639 15.304C147.175 15.368 146.631 15.44 146.007 15.52C145.399 15.6 144.799 15.68 144.207 15.76C143.631 15.824 143.151 15.88 142.767 15.928C142.383 15.976 142.191 16 142.191 16C142.191 16 142.063 16 141.807 16C141.567 15.984 141.303 15.936 141.015 15.856C140.743 15.776 140.559 15.632 140.463 15.424C140.319 15.104 140.263 14.848 140.295 14.656C140.343 14.448 140.567 14.12 140.967 13.672C141.127 13.496 141.383 13.2 141.735 12.784C142.087 12.352 142.471 11.856 142.887 11.296C143.319 10.72 143.735 10.12 144.135 9.496C144.535 8.856 144.863 8.24 145.119 7.648C145.375 7.04 145.511 6.496 145.527 6.016C145.543 5.216 145.495 4.664 145.383 4.36C145.271 4.056 145.143 3.888 144.999 3.856C144.871 3.808 144.783 3.784 144.735 3.784C144.687 3.784 144.575 3.816 144.399 3.88C144.223 3.928 144.047 4.032 143.871 4.192C143.711 4.336 143.631 4.568 143.631 4.888C143.631 5.192 143.631 5.504 143.631 5.824C143.631 6.128 143.511 6.392 143.271 6.616C143.047 6.84 142.583 7 141.879 7.096ZM155.753 2.224C155.753 2.224 155.921 2.232 156.257 2.248C156.593 2.264 157.009 2.352 157.505 2.512C158.001 2.656 158.505 2.936 159.017 3.352C159.529 3.752 159.961 4.336 160.313 5.104C160.681 5.872 160.889 6.888 160.937 8.152C161.001 10.152 160.865 11.728 160.529 12.88C160.193 14.016 159.657 14.824 158.921 15.304C158.185 15.768 157.249 16 156.113 16C154.417 16 153.097 15.416 152.153 14.248C151.209 13.064 150.737 11.192 150.737 8.632C150.737 7.352 150.873 6.296 151.145 5.464C151.417 4.632 151.785 3.984 152.249 3.52C152.713 3.056 153.241 2.728 153.833 2.536C154.441 2.328 155.081 2.224 155.753 2.224ZM155.921 4.144C155.809 4.176 155.681 4.216 155.537 4.264C155.409 4.312 155.281 4.464 155.153 4.72C155.041 4.976 154.937 5.408 154.841 6.016C154.761 6.624 154.705 7.496 154.673 8.632C154.641 9.928 154.665 10.952 154.745 11.704C154.825 12.44 154.945 12.968 155.105 13.288C155.281 13.592 155.489 13.752 155.729 13.768C155.921 13.784 156.097 13.736 156.257 13.624C156.433 13.512 156.585 13.28 156.713 12.928C156.857 12.576 156.961 12.056 157.025 11.368C157.105 10.68 157.145 9.768 157.145 8.632C157.145 7.496 157.081 6.624 156.953 6.016C156.841 5.392 156.697 4.952 156.521 4.696C156.361 4.424 156.217 4.264 156.089 4.216C155.977 4.168 155.921 4.144 155.921 4.144ZM170.266 5.896C170.266 5.896 170.162 5.896 169.954 5.896C169.746 5.88 169.498 5.832 169.21 5.752C168.938 5.656 168.69 5.488 168.466 5.248C168.242 5.008 168.122 4.648 168.106 4.168C168.09 3.688 168.162 3.336 168.322 3.112C168.482 2.872 168.682 2.712 168.922 2.632C169.162 2.536 169.394 2.488 169.618 2.488C169.842 2.472 170.002 2.456 170.098 2.44C170.194 2.424 170.354 2.44 170.578 2.488C170.802 2.52 171.034 2.608 171.274 2.752C171.514 2.88 171.714 3.08 171.874 3.352C172.034 3.608 172.098 3.952 172.066 4.384C172.034 4.8 171.922 5.12 171.73 5.344C171.554 5.552 171.346 5.696 171.106 5.776C170.882 5.84 170.682 5.88 170.506 5.896C170.346 5.896 170.266 5.896 170.266 5.896ZM169.426 14.512L168.85 9.04C168.85 9.04 168.81 8.96 168.73 8.8C168.666 8.624 168.618 8.504 168.586 8.44C168.57 8.392 168.538 8.296 168.49 8.152C168.458 7.992 168.498 7.824 168.61 7.648C168.738 7.472 169.01 7.344 169.426 7.264C169.858 7.184 170.306 7.16 170.77 7.192C171.234 7.224 171.642 7.368 171.994 7.624C172.362 7.864 172.586 8.288 172.666 8.896C172.73 9.344 172.794 9.88 172.858 10.504C172.922 11.112 172.978 11.712 173.026 12.304C173.09 12.88 173.138 13.368 173.17 13.768C173.218 14.152 173.242 14.344 173.242 14.344C173.242 14.344 173.25 14.432 173.266 14.608C173.282 14.768 173.258 14.96 173.194 15.184C173.13 15.392 172.97 15.584 172.714 15.76C172.474 15.92 172.082 16 171.538 16C170.994 16 170.578 15.928 170.29 15.784C170.002 15.624 169.794 15.448 169.666 15.256C169.554 15.064 169.482 14.896 169.45 14.752C169.434 14.592 169.426 14.512 169.426 14.512ZM176.64 1.552C176.64 1.552 176.744 1.56 176.952 1.576C177.16 1.576 177.4 1.616 177.672 1.696C177.944 1.76 178.184 1.88 178.392 2.056C178.6 2.232 178.704 2.48 178.704 2.8C178.704 3.008 178.712 3.432 178.728 4.072C178.744 4.712 178.76 5.472 178.776 6.352C178.792 7.216 178.808 8.112 178.824 9.04C178.856 9.952 178.88 10.808 178.896 11.608C178.912 12.408 178.92 13.056 178.92 13.552C178.936 14.048 178.944 14.296 178.944 14.296C178.944 14.296 178.944 14.384 178.944 14.56C178.944 14.72 178.896 14.92 178.8 15.16C178.704 15.384 178.52 15.584 178.248 15.76C177.976 15.92 177.576 16 177.048 16C176.344 16 175.832 15.912 175.512 15.736C175.192 15.544 174.992 15.336 174.912 15.112C174.848 14.872 174.824 14.688 174.84 14.56C174.856 14.496 174.864 14.216 174.864 13.72C174.864 13.224 174.856 12.6 174.84 11.848C174.84 11.096 174.832 10.288 174.816 9.424C174.8 8.56 174.784 7.712 174.768 6.88C174.752 6.032 174.728 5.28 174.696 4.624C174.68 3.952 174.664 3.456 174.648 3.136C174.616 2.688 174.72 2.352 174.96 2.128C175.216 1.904 175.504 1.76 175.824 1.696C176.16 1.616 176.432 1.568 176.64 1.552ZM182.242 1.552C182.242 1.552 182.346 1.56 182.554 1.576C182.762 1.576 183.002 1.616 183.274 1.696C183.546 1.76 183.786 1.88 183.994 2.056C184.202 2.232 184.306 2.48 184.306 2.8C184.306 3.008 184.314 3.432 184.33 4.072C184.346 4.712 184.362 5.472 184.378 6.352C184.394 7.216 184.41 8.112 184.426 9.04C184.458 9.952 184.482 10.808 184.498 11.608C184.514 12.408 184.522 13.056 184.522 13.552C184.538 14.048 184.546 14.296 184.546 14.296C184.546 14.296 184.546 14.384 184.546 14.56C184.546 14.72 184.498 14.92 184.402 15.16C184.306 15.384 184.122 15.584 183.85 15.76C183.578 15.92 183.178 16 182.65 16C181.946 16 181.434 15.912 181.114 15.736C180.794 15.544 180.594 15.336 180.514 15.112C180.45 14.872 180.426 14.688 180.442 14.56C180.458 14.496 180.466 14.216 180.466 13.72C180.466 13.224 180.458 12.6 180.442 11.848C180.442 11.096 180.434 10.288 180.418 9.424C180.402 8.56 180.386 7.712 180.37 6.88C180.354 6.032 180.33 5.28 180.298 4.624C180.282 3.952 180.266 3.456 180.25 3.136C180.218 2.688 180.322 2.352 180.562 2.128C180.818 1.904 181.106 1.76 181.426 1.696C181.762 1.616 182.034 1.568 182.242 1.552ZM185.755 7.696C185.755 7.696 185.755 7.624 185.755 7.48C185.771 7.336 185.827 7.176 185.923 7C186.019 6.808 186.195 6.64 186.451 6.496C186.723 6.352 187.107 6.28 187.603 6.28C188.211 6.28 188.643 6.368 188.899 6.544C189.171 6.704 189.331 6.904 189.379 7.144C189.443 7.368 189.459 7.592 189.427 7.816C189.395 8.024 189.379 8.168 189.379 8.248C189.379 8.312 189.379 8.552 189.379 8.968C189.395 9.368 189.427 9.848 189.475 10.408C189.523 10.968 189.603 11.52 189.715 12.064C189.827 12.608 189.987 13.064 190.195 13.432C190.403 13.784 190.675 13.952 191.011 13.936C191.347 13.92 191.571 13.744 191.683 13.408C191.795 13.072 191.835 12.656 191.803 12.16C191.787 11.664 191.731 11.168 191.635 10.672C191.539 10.176 191.443 9.752 191.347 9.4C191.251 9.032 191.203 8.824 191.203 8.776C191.203 8.712 191.179 8.6 191.131 8.44C191.099 8.264 191.099 8.072 191.131 7.864C191.179 7.656 191.315 7.464 191.539 7.288C191.763 7.112 192.131 7 192.643 6.952C193.155 6.904 193.555 6.936 193.843 7.048C194.147 7.144 194.363 7.272 194.491 7.432C194.635 7.592 194.723 7.744 194.755 7.888C194.787 8.016 194.803 8.08 194.803 8.08C194.803 8.08 194.859 8.272 194.971 8.656C195.083 9.04 195.187 9.536 195.283 10.144C195.379 10.736 195.411 11.368 195.379 12.04C195.363 12.712 195.219 13.352 194.947 13.96C194.691 14.552 194.259 15.04 193.651 15.424C193.059 15.808 192.227 16 191.155 16C190.083 16 189.203 15.8 188.515 15.4C187.827 15 187.283 14.488 186.883 13.864C186.499 13.224 186.219 12.552 186.043 11.848C185.867 11.144 185.763 10.48 185.731 9.856C185.699 9.216 185.691 8.696 185.707 8.296C185.739 7.896 185.755 7.696 185.755 7.696ZM199.083 16C199.083 16 198.979 16 198.771 16C198.579 16.016 198.347 15.992 198.075 15.928C197.819 15.864 197.579 15.736 197.355 15.544C197.147 15.336 197.019 15.024 196.971 14.608C196.939 14.272 196.899 13.824 196.851 13.264C196.819 12.704 196.779 12.112 196.731 11.488C196.683 10.848 196.643 10.248 196.611 9.688C196.579 9.128 196.547 8.672 196.515 8.32C196.499 7.952 196.491 7.768 196.491 7.768C196.491 7.768 196.483 7.696 196.467 7.552C196.467 7.408 196.499 7.24 196.563 7.048C196.643 6.84 196.795 6.656 197.019 6.496C197.243 6.336 197.595 6.248 198.075 6.232C198.715 6.2 199.187 6.24 199.491 6.352C199.795 6.464 199.995 6.584 200.091 6.712C200.203 6.84 200.259 6.904 200.259 6.904C200.259 6.904 200.379 6.84 200.619 6.712C200.875 6.584 201.219 6.464 201.651 6.352C202.083 6.224 202.563 6.16 203.091 6.16C203.699 6.16 204.195 6.224 204.579 6.352C204.979 6.48 205.275 6.608 205.467 6.736C205.659 6.864 205.755 6.928 205.755 6.928C206.219 6.64 206.691 6.472 207.171 6.424C207.667 6.376 208.227 6.352 208.851 6.352C208.851 6.352 209.011 6.376 209.331 6.424C209.651 6.456 210.051 6.552 210.531 6.712C211.011 6.872 211.491 7.136 211.971 7.504C212.467 7.856 212.883 8.352 213.219 8.992C213.555 9.616 213.731 10.424 213.747 11.416C213.779 12.664 213.747 13.608 213.651 14.248C213.555 14.888 213.419 15.328 213.243 15.568C213.067 15.808 212.851 15.944 212.595 15.976C212.339 15.992 212.059 16 211.755 16C211.147 16 210.627 15.872 210.195 15.616C209.779 15.344 209.619 14.936 209.715 14.392C209.747 14.184 209.771 13.848 209.787 13.384C209.819 12.92 209.819 12.416 209.787 11.872C209.755 11.312 209.683 10.784 209.571 10.288C209.459 9.776 209.291 9.36 209.067 9.04C208.843 8.704 208.547 8.544 208.179 8.56C207.907 8.56 207.691 8.672 207.531 8.896C207.387 9.104 207.283 9.312 207.219 9.52C207.155 9.728 207.123 9.832 207.123 9.832L207.435 14.392C207.435 14.392 207.435 14.472 207.435 14.632C207.451 14.792 207.419 14.984 207.339 15.208C207.259 15.416 207.083 15.6 206.811 15.76C206.539 15.92 206.115 16 205.539 16C204.963 16 204.523 15.928 204.219 15.784C203.931 15.64 203.731 15.472 203.619 15.28C203.507 15.088 203.443 14.92 203.427 14.776C203.411 14.632 203.403 14.552 203.403 14.536C203.403 14.52 203.411 14.36 203.427 14.056C203.443 13.736 203.451 13.336 203.451 12.856C203.467 12.376 203.451 11.872 203.403 11.344C203.355 10.8 203.267 10.296 203.139 9.832C203.027 9.352 202.851 8.984 202.611 8.728C202.387 8.456 202.083 8.344 201.699 8.392C201.331 8.44 201.067 8.56 200.907 8.752C200.747 8.928 200.643 9.096 200.595 9.256C200.563 9.416 200.547 9.496 200.547 9.496L200.931 14.56C200.931 14.56 200.931 14.632 200.931 14.776C200.947 14.92 200.907 15.088 200.811 15.28C200.731 15.472 200.555 15.64 200.283 15.784C200.027 15.928 199.627 16 199.083 16ZM217.024 5.896C217.024 5.896 216.92 5.896 216.712 5.896C216.504 5.88 216.256 5.832 215.968 5.752C215.696 5.656 215.448 5.488 215.224 5.248C215 5.008 214.88 4.648 214.864 4.168C214.848 3.688 214.92 3.336 215.08 3.112C215.24 2.872 215.44 2.712 215.68 2.632C215.92 2.536 216.152 2.488 216.376 2.488C216.6 2.472 216.76 2.456 216.856 2.44C216.952 2.424 217.112 2.44 217.336 2.488C217.56 2.52 217.792 2.608 218.032 2.752C218.272 2.88 218.472 3.08 218.632 3.352C218.792 3.608 218.856 3.952 218.824 4.384C218.792 4.8 218.68 5.12 218.488 5.344C218.312 5.552 218.104 5.696 217.864 5.776C217.64 5.84 217.44 5.88 217.264 5.896C217.104 5.896 217.024 5.896 217.024 5.896ZM216.184 14.512L215.608 9.04C215.608 9.04 215.568 8.96 215.488 8.8C215.424 8.624 215.376 8.504 215.344 8.44C215.328 8.392 215.296 8.296 215.248 8.152C215.216 7.992 215.256 7.824 215.368 7.648C215.496 7.472 215.768 7.344 216.184 7.264C216.616 7.184 217.064 7.16 217.528 7.192C217.992 7.224 218.4 7.368 218.752 7.624C219.12 7.864 219.344 8.288 219.424 8.896C219.488 9.344 219.552 9.88 219.616 10.504C219.68 11.112 219.736 11.712 219.784 12.304C219.848 12.88 219.896 13.368 219.928 13.768C219.976 14.152 220 14.344 220 14.344C220 14.344 220.008 14.432 220.024 14.608C220.04 14.768 220.016 14.96 219.952 15.184C219.888 15.392 219.728 15.584 219.472 15.76C219.232 15.92 218.84 16 218.296 16C217.752 16 217.336 15.928 217.048 15.784C216.76 15.624 216.552 15.448 216.424 15.256C216.312 15.064 216.24 14.896 216.208 14.752C216.192 14.592 216.184 14.512 216.184 14.512ZM224.022 16C224.022 16 223.918 16 223.71 16C223.502 16 223.262 15.968 222.99 15.904C222.734 15.84 222.502 15.712 222.294 15.52C222.086 15.328 221.966 15.048 221.934 14.68C221.918 14.376 221.886 13.944 221.838 13.384C221.79 12.824 221.734 12.216 221.67 11.56C221.622 10.888 221.574 10.256 221.526 9.664C221.478 9.056 221.438 8.56 221.406 8.176C221.374 7.792 221.358 7.6 221.358 7.6C221.358 7.6 221.366 7.536 221.382 7.408C221.398 7.264 221.454 7.104 221.55 6.928C221.662 6.752 221.846 6.592 222.102 6.448C222.374 6.304 222.75 6.224 223.23 6.208C223.71 6.192 224.086 6.24 224.358 6.352C224.63 6.464 224.822 6.6 224.934 6.76C225.062 6.904 225.134 7.04 225.15 7.168C225.182 7.28 225.198 7.336 225.198 7.336C225.198 7.336 225.342 7.264 225.63 7.12C225.934 6.96 226.318 6.8 226.782 6.64C227.262 6.48 227.766 6.384 228.294 6.352C228.374 6.352 228.526 6.352 228.75 6.352C228.99 6.352 229.246 6.408 229.518 6.52C229.806 6.616 230.086 6.808 230.358 7.096C230.646 7.384 230.886 7.808 231.078 8.368C231.27 8.912 231.382 9.632 231.414 10.528C231.462 11.648 231.494 12.568 231.51 13.288C231.542 14.008 231.518 14.568 231.438 14.968C231.374 15.352 231.214 15.624 230.958 15.784C230.718 15.928 230.334 16 229.806 16C229.294 16 228.918 15.928 228.678 15.784C228.438 15.64 228.286 15.472 228.222 15.28C228.158 15.072 228.126 14.888 228.126 14.728C228.126 14.632 228.142 14.376 228.174 13.96C228.206 13.528 228.23 13.04 228.246 12.496C228.262 11.936 228.254 11.392 228.222 10.864C228.206 10.32 228.142 9.88 228.03 9.544C227.934 9.192 227.774 9.024 227.55 9.04C227.278 9.056 227.022 9.16 226.782 9.352C226.558 9.528 226.358 9.736 226.182 9.976C226.006 10.2 225.87 10.4 225.774 10.576C225.678 10.736 225.63 10.816 225.63 10.816L225.87 14.44C225.87 14.44 225.87 14.52 225.87 14.68C225.87 14.84 225.822 15.024 225.726 15.232C225.63 15.424 225.446 15.6 225.174 15.76C224.918 15.92 224.534 16 224.022 16ZM237.478 6.088C238.278 6.072 238.958 6.144 239.518 6.304C240.078 6.448 240.542 6.624 240.91 6.832C241.278 7.04 241.566 7.224 241.774 7.384C241.982 7.544 242.134 7.624 242.23 7.624C242.406 7.64 242.534 7.728 242.614 7.888C242.694 8.032 242.734 8.104 242.734 8.104C242.734 8.104 242.758 8.264 242.806 8.584C242.854 8.904 242.91 9.312 242.974 9.808C243.054 10.304 243.126 10.824 243.19 11.368C243.254 11.912 243.31 12.424 243.358 12.904C243.406 13.384 243.43 13.76 243.43 14.032C243.43 14.48 243.398 14.84 243.334 15.112C243.286 15.384 243.126 15.592 242.854 15.736C242.582 15.864 242.134 15.952 241.51 16C241.046 16.032 240.71 16.024 240.502 15.976C240.294 15.928 240.166 15.872 240.118 15.808C240.07 15.744 240.046 15.712 240.046 15.712C239.902 15.824 239.662 15.904 239.326 15.952C239.006 15.984 238.702 16 238.414 16C238.126 16 237.982 16 237.982 16C237.982 16 237.798 15.976 237.43 15.928C237.062 15.864 236.606 15.744 236.062 15.568C235.534 15.376 234.998 15.096 234.454 14.728C233.926 14.344 233.486 13.84 233.134 13.216C232.782 12.576 232.614 11.784 232.63 10.84C232.646 9.896 232.822 9.128 233.158 8.536C233.494 7.928 233.902 7.456 234.382 7.12C234.862 6.784 235.334 6.544 235.798 6.4C236.278 6.256 236.678 6.168 236.998 6.136C237.318 6.104 237.478 6.088 237.478 6.088ZM239.278 8.56C239.198 8.448 239.022 8.328 238.75 8.2C238.494 8.056 238.246 7.936 238.006 7.84C237.782 7.744 237.67 7.712 237.67 7.744C237.67 7.76 237.582 7.896 237.406 8.152C237.246 8.392 237.078 8.752 236.902 9.232C236.742 9.696 236.654 10.256 236.638 10.912C236.622 11.568 236.71 12.136 236.902 12.616C237.094 13.096 237.326 13.464 237.598 13.72C237.886 13.976 238.15 14.104 238.39 14.104C238.566 14.104 238.734 14.024 238.894 13.864C239.054 13.688 239.19 13.496 239.302 13.288C239.414 13.064 239.502 12.872 239.566 12.712C239.63 12.552 239.662 12.472 239.662 12.472L239.278 8.56ZM244.537 2.896C244.521 2.496 244.641 2.176 244.897 1.936C245.153 1.68 245.721 1.528 246.601 1.48C247.193 1.448 247.625 1.52 247.897 1.696C248.169 1.872 248.337 2.056 248.401 2.248C248.481 2.424 248.521 2.512 248.521 2.512L248.665 4.648C248.665 4.648 248.793 4.648 249.049 4.648C249.321 4.648 249.625 4.68 249.961 4.744C250.313 4.792 250.617 4.896 250.873 5.056C251.145 5.216 251.281 5.464 251.281 5.8C251.281 6.136 251.153 6.384 250.897 6.544C250.641 6.704 250.345 6.816 250.009 6.88C249.673 6.928 249.369 6.952 249.097 6.952C248.841 6.952 248.713 6.952 248.713 6.952C248.713 6.952 248.713 7.136 248.713 7.504C248.729 7.856 248.737 8.32 248.737 8.896C248.737 9.456 248.745 10.056 248.761 10.696C248.777 11.336 248.785 11.952 248.785 12.544C248.785 13.12 248.785 13.608 248.785 14.008C248.801 14.392 248.809 14.616 248.809 14.68C248.809 14.792 248.769 14.952 248.689 15.16C248.625 15.368 248.441 15.56 248.137 15.736C247.849 15.912 247.369 16 246.697 16C246.201 16 245.817 15.944 245.545 15.832C245.273 15.704 245.073 15.568 244.945 15.424C244.833 15.264 244.769 15.128 244.753 15.016C244.737 14.888 244.729 14.824 244.729 14.824L244.537 2.896ZM261.989 8.752C261.941 9.552 261.717 10.2 261.317 10.696C260.917 11.176 260.429 11.544 259.853 11.8C259.293 12.04 258.733 12.208 258.173 12.304C257.613 12.384 257.141 12.424 256.757 12.424C256.389 12.424 256.205 12.424 256.205 12.424C256.301 12.984 256.437 13.384 256.613 13.624C256.789 13.864 256.981 14 257.189 14.032C257.413 14.064 257.621 14.048 257.813 13.984C258.005 13.904 258.157 13.816 258.269 13.72C258.397 13.624 258.461 13.576 258.461 13.576C258.461 13.576 258.549 13.504 258.725 13.36C258.901 13.216 259.173 13.08 259.541 12.952C259.925 12.808 260.405 12.736 260.981 12.736C261.637 12.736 262.077 12.824 262.301 13C262.541 13.16 262.653 13.352 262.637 13.576C262.637 13.784 262.589 13.976 262.493 14.152C262.413 14.312 262.373 14.392 262.373 14.392C262.373 14.392 262.301 14.472 262.157 14.632C262.029 14.776 261.789 14.952 261.437 15.16C261.085 15.368 260.597 15.56 259.973 15.736C259.349 15.896 258.549 15.984 257.573 16C256.629 16.016 255.837 15.888 255.197 15.616C254.557 15.344 254.029 14.992 253.613 14.56C253.197 14.112 252.877 13.648 252.653 13.168C252.445 12.672 252.293 12.216 252.197 11.8C252.117 11.368 252.077 11.032 252.077 10.792C252.077 10.552 252.093 10.24 252.125 9.856C252.173 9.472 252.277 9.072 252.437 8.656C252.613 8.224 252.877 7.816 253.229 7.432C253.581 7.048 254.061 6.736 254.669 6.496C255.293 6.256 256.085 6.128 257.045 6.112C258.245 6.096 259.181 6.2 259.853 6.424C260.525 6.648 261.013 6.92 261.317 7.24C261.621 7.56 261.805 7.864 261.869 8.152C261.949 8.44 261.989 8.64 261.989 8.752ZM255.869 10.768C256.845 10.688 257.573 10.48 258.053 10.144C258.533 9.808 258.813 9.432 258.893 9.016C258.973 8.6 258.893 8.248 258.653 7.96C258.429 7.656 258.085 7.52 257.621 7.552C257.157 7.568 256.805 7.744 256.565 8.08C256.325 8.4 256.157 8.776 256.061 9.208C255.965 9.624 255.909 9.992 255.893 10.312C255.877 10.616 255.869 10.768 255.869 10.768ZM271.888 0.352C271.888 0.352 271.984 0.368 272.176 0.399999C272.384 0.415999 272.616 0.463999 272.872 0.543999C273.128 0.607999 273.36 0.719999 273.568 0.879999C273.792 1.024 273.912 1.232 273.928 1.504C273.944 1.68 273.968 2.064 274 2.656C274.032 3.232 274.064 3.92 274.096 4.72C274.144 5.52 274.184 6.352 274.216 7.216C274.264 8.064 274.304 8.864 274.336 9.616C274.368 10.352 274.392 10.952 274.408 11.416C274.44 11.88 274.456 12.112 274.456 12.112C274.456 12.112 274.448 12.208 274.432 12.4C274.432 12.592 274.384 12.832 274.288 13.12C274.208 13.408 274.056 13.688 273.832 13.96C273.352 14.552 272.744 15.04 272.008 15.424C271.272 15.808 270.264 16 268.984 16C268.136 16 267.32 15.84 266.536 15.52C265.768 15.2 265.136 14.696 264.64 14.008C264.16 13.304 263.928 12.392 263.944 11.272C263.96 10.424 264.144 9.68 264.496 9.04C264.864 8.4 265.344 7.872 265.936 7.456C266.528 7.024 267.184 6.704 267.904 6.496C268.64 6.288 269.376 6.184 270.112 6.184L269.944 2.032C269.944 2.032 269.928 1.96 269.896 1.816C269.864 1.656 269.88 1.472 269.944 1.264C270.024 1.056 270.208 0.863999 270.496 0.688C270.784 0.511999 271.248 0.399999 271.888 0.352ZM270.184 8.272C269.816 8.24 269.464 8.376 269.128 8.68C268.792 8.984 268.512 9.376 268.288 9.856C268.08 10.32 267.976 10.784 267.976 11.248C267.976 11.936 268.088 12.528 268.312 13.024C268.552 13.52 268.864 13.768 269.248 13.768C269.504 13.768 269.72 13.664 269.896 13.456C270.072 13.248 270.208 13.04 270.304 12.832C270.4 12.608 270.448 12.496 270.448 12.496L270.184 8.272ZM277.445 16C276.997 16 276.557 15.928 276.125 15.784C275.709 15.64 275.477 15.376 275.429 14.992C275.381 14.784 275.341 14.584 275.309 14.392C275.277 14.2 275.341 14.024 275.501 13.864C275.725 13.624 276.053 13.464 276.485 13.384C276.917 13.304 277.357 13.296 277.805 13.36C278.253 13.424 278.613 13.544 278.885 13.72C279.077 13.848 279.205 14.016 279.269 14.224C279.333 14.416 279.373 14.616 279.389 14.824C279.437 15.112 279.357 15.344 279.149 15.52C278.941 15.696 278.677 15.824 278.357 15.904C278.037 15.968 277.733 16 277.445 16ZM289.124 3.04C289.108 3.04 289.132 2.952 289.196 2.776C289.276 2.584 289.452 2.4 289.724 2.224C289.996 2.048 290.444 1.952 291.068 1.936C291.628 1.92 292.052 1.992 292.34 2.152C292.628 2.296 292.82 2.44 292.916 2.584C293.028 2.728 293.084 2.8 293.084 2.8C293.084 2.8 293.172 3.008 293.348 3.424C293.524 3.84 293.764 4.392 294.068 5.08C294.372 5.752 294.708 6.504 295.076 7.336C295.444 8.168 295.812 9.016 296.18 9.88C296.564 10.728 296.916 11.528 297.236 12.28C297.572 13.016 297.852 13.64 298.076 14.152C298.3 14.648 298.444 14.96 298.508 15.088C298.652 15.392 298.732 15.608 298.748 15.736C298.764 15.864 298.756 15.952 298.724 16C298.708 16.032 298.7 16.056 298.7 16.072C298.588 16.296 298.364 16.488 298.028 16.648C297.708 16.824 297.316 16.92 296.852 16.936C296.212 16.952 295.748 16.88 295.46 16.72C295.172 16.576 294.98 16.424 294.884 16.264C294.804 16.12 294.772 16.056 294.788 16.072C294.788 16.072 294.7 15.888 294.524 15.52C294.364 15.152 294.172 14.712 293.948 14.2C293.724 13.672 293.516 13.192 293.324 12.76C293.324 12.76 293.212 12.76 292.988 12.76C292.78 12.76 292.532 12.76 292.244 12.76C291.956 12.76 291.7 12.76 291.476 12.76C291.268 12.76 291.164 12.76 291.164 12.76C291.1 12.984 291.036 13.264 290.972 13.6C290.908 13.92 290.852 14.208 290.804 14.464C290.756 14.72 290.732 14.848 290.732 14.848C290.732 14.848 290.692 14.944 290.612 15.136C290.548 15.328 290.364 15.52 290.06 15.712C289.756 15.904 289.252 16 288.548 16C288.02 16 287.62 15.944 287.348 15.832C287.092 15.704 286.916 15.56 286.82 15.4C286.74 15.24 286.7 15.104 286.7 14.992C286.7 14.864 286.7 14.8 286.7 14.8C286.732 14.64 286.796 14.312 286.892 13.816C287.004 13.304 287.132 12.696 287.276 11.992C287.436 11.272 287.596 10.512 287.756 9.712C287.932 8.912 288.1 8.12 288.26 7.336C288.42 6.552 288.564 5.84 288.692 5.2C288.82 4.544 288.924 4.024 289.004 3.64C289.084 3.24 289.124 3.04 289.124 3.04ZM291.644 6.832C291.628 6.896 291.612 7.024 291.596 7.216L291.5 7.888C291.468 8.256 291.428 8.648 291.38 9.064C291.332 9.48 291.284 9.872 291.236 10.24C291.204 10.432 291.18 10.552 291.164 10.6H291.476C291.668 10.6 291.876 10.592 292.1 10.576C292.324 10.56 292.524 10.552 292.7 10.552C292.636 10.424 292.58 10.264 292.532 10.072C292.5 9.864 292.46 9.672 292.412 9.496C292.316 9.128 292.204 8.744 292.076 8.344C291.964 7.944 291.86 7.568 291.764 7.216C291.716 7.024 291.676 6.896 291.644 6.832ZM301.679 1.552C301.679 1.552 301.783 1.56 301.991 1.576C302.199 1.576 302.439 1.616 302.711 1.696C302.983 1.76 303.223 1.88 303.431 2.056C303.639 2.232 303.743 2.48 303.743 2.8C303.743 3.008 303.751 3.432 303.767 4.072C303.783 4.712 303.799 5.472 303.815 6.352C303.831 7.216 303.847 8.112 303.863 9.04C303.895 9.952 303.919 10.808 303.935 11.608C303.951 12.408 303.959 13.056 303.959 13.552C303.975 14.048 303.983 14.296 303.983 14.296C303.983 14.296 303.983 14.384 303.983 14.56C303.983 14.72 303.935 14.92 303.839 15.16C303.743 15.384 303.559 15.584 303.287 15.76C303.015 15.92 302.615 16 302.087 16C301.383 16 300.871 15.912 300.551 15.736C300.231 15.544 300.031 15.336 299.951 15.112C299.887 14.872 299.863 14.688 299.879 14.56C299.895 14.496 299.903 14.216 299.903 13.72C299.903 13.224 299.895 12.6 299.879 11.848C299.879 11.096 299.871 10.288 299.855 9.424C299.839 8.56 299.823 7.712 299.807 6.88C299.791 6.032 299.767 5.28 299.735 4.624C299.719 3.952 299.703 3.456 299.687 3.136C299.655 2.688 299.759 2.352 299.999 2.128C300.255 1.904 300.543 1.76 300.863 1.696C301.199 1.616 301.471 1.568 301.679 1.552ZM307.281 1.552C307.281 1.552 307.385 1.56 307.593 1.576C307.801 1.576 308.041 1.616 308.313 1.696C308.585 1.76 308.825 1.88 309.033 2.056C309.241 2.232 309.345 2.48 309.345 2.8C309.345 3.008 309.353 3.432 309.369 4.072C309.385 4.712 309.401 5.472 309.417 6.352C309.433 7.216 309.449 8.112 309.465 9.04C309.497 9.952 309.521 10.808 309.537 11.608C309.553 12.408 309.561 13.056 309.561 13.552C309.577 14.048 309.585 14.296 309.585 14.296C309.585 14.296 309.585 14.384 309.585 14.56C309.585 14.72 309.537 14.92 309.441 15.16C309.345 15.384 309.161 15.584 308.889 15.76C308.617 15.92 308.217 16 307.689 16C306.985 16 306.473 15.912 306.153 15.736C305.833 15.544 305.633 15.336 305.553 15.112C305.489 14.872 305.465 14.688 305.481 14.56C305.497 14.496 305.505 14.216 305.505 13.72C305.505 13.224 305.497 12.6 305.481 11.848C305.481 11.096 305.473 10.288 305.457 9.424C305.441 8.56 305.425 7.712 305.409 6.88C305.393 6.032 305.369 5.28 305.337 4.624C305.321 3.952 305.305 3.456 305.289 3.136C305.257 2.688 305.361 2.352 305.601 2.128C305.857 1.904 306.145 1.76 306.465 1.696C306.801 1.616 307.073 1.568 307.281 1.552ZM318.037 14.368C318.037 14.192 318.013 13.888 317.965 13.456C317.917 13.024 317.853 12.536 317.773 11.992C317.709 11.432 317.637 10.88 317.557 10.336C317.477 9.776 317.389 9.28 317.293 8.848C317.213 8.4 317.141 8.08 317.077 7.888C316.917 7.408 317.005 7.072 317.341 6.88C317.693 6.672 318.181 6.536 318.805 6.472C319.429 6.408 319.877 6.456 320.149 6.616C320.437 6.76 320.581 6.832 320.581 6.832C320.821 6.592 321.213 6.424 321.757 6.328C322.317 6.232 322.901 6.192 323.509 6.208C324.293 6.224 324.861 6.344 325.213 6.568C325.565 6.792 325.741 7.032 325.741 7.288C325.741 7.48 325.717 7.624 325.669 7.72C325.621 7.816 325.429 7.912 325.093 8.008C324.773 8.088 324.189 8.232 323.341 8.44C322.845 8.552 322.477 8.824 322.237 9.256C321.997 9.672 321.845 10.16 321.781 10.72C321.733 11.264 321.733 11.808 321.781 12.352C321.829 12.88 321.885 13.328 321.949 13.696C322.013 14.048 322.045 14.24 322.045 14.272C322.045 14.304 322.053 14.416 322.069 14.608C322.101 14.784 322.077 14.984 321.997 15.208C321.933 15.416 321.765 15.6 321.493 15.76C321.221 15.92 320.789 16 320.197 16C319.605 16 319.157 15.92 318.853 15.76C318.549 15.584 318.341 15.392 318.229 15.184C318.117 14.976 318.053 14.792 318.037 14.632C318.037 14.456 318.037 14.368 318.037 14.368ZM328.961 5.896C328.961 5.896 328.857 5.896 328.649 5.896C328.441 5.88 328.193 5.832 327.905 5.752C327.633 5.656 327.385 5.488 327.161 5.248C326.937 5.008 326.817 4.648 326.801 4.168C326.785 3.688 326.857 3.336 327.017 3.112C327.177 2.872 327.377 2.712 327.617 2.632C327.857 2.536 328.089 2.488 328.313 2.488C328.537 2.472 328.697 2.456 328.793 2.44C328.889 2.424 329.049 2.44 329.273 2.488C329.497 2.52 329.729 2.608 329.969 2.752C330.209 2.88 330.409 3.08 330.569 3.352C330.729 3.608 330.793 3.952 330.761 4.384C330.729 4.8 330.617 5.12 330.425 5.344C330.249 5.552 330.041 5.696 329.801 5.776C329.577 5.84 329.377 5.88 329.201 5.896C329.041 5.896 328.961 5.896 328.961 5.896ZM328.121 14.512L327.545 9.04C327.545 9.04 327.505 8.96 327.425 8.8C327.361 8.624 327.313 8.504 327.281 8.44C327.265 8.392 327.233 8.296 327.185 8.152C327.153 7.992 327.193 7.824 327.305 7.648C327.433 7.472 327.705 7.344 328.121 7.264C328.553 7.184 329.001 7.16 329.465 7.192C329.929 7.224 330.337 7.368 330.689 7.624C331.057 7.864 331.281 8.288 331.361 8.896C331.425 9.344 331.489 9.88 331.553 10.504C331.617 11.112 331.673 11.712 331.721 12.304C331.785 12.88 331.833 13.368 331.865 13.768C331.913 14.152 331.937 14.344 331.937 14.344C331.937 14.344 331.945 14.432 331.961 14.608C331.977 14.768 331.953 14.96 331.889 15.184C331.825 15.392 331.665 15.584 331.409 15.76C331.169 15.92 330.777 16 330.233 16C329.689 16 329.273 15.928 328.985 15.784C328.697 15.624 328.489 15.448 328.361 15.256C328.249 15.064 328.177 14.896 328.145 14.752C328.129 14.592 328.121 14.512 328.121 14.512ZM340.399 15.4C340.399 15.4 340.279 15.448 340.039 15.544C339.815 15.64 339.511 15.744 339.127 15.856C338.743 15.952 338.311 16 337.831 16C337.479 16 337.039 15.952 336.511 15.856C335.999 15.744 335.487 15.536 334.975 15.232C334.463 14.928 334.039 14.488 333.703 13.912C333.383 13.336 333.231 12.568 333.247 11.608C333.279 10.648 333.495 9.832 333.895 9.16C334.295 8.472 334.807 7.904 335.431 7.456C336.055 7.008 336.711 6.672 337.399 6.448C338.103 6.224 338.759 6.096 339.367 6.064C340.183 6.016 340.871 6.104 341.431 6.328C341.991 6.536 342.415 6.784 342.703 7.072C342.991 7.344 343.135 7.568 343.135 7.744C343.135 7.872 343.191 8.168 343.303 8.632C343.415 9.096 343.535 9.672 343.663 10.36C343.807 11.032 343.935 11.776 344.047 12.592C344.159 13.392 344.223 14.208 344.239 15.04C344.255 15.872 344.231 16.648 344.167 17.368C344.119 18.104 343.975 18.752 343.735 19.312C343.511 19.888 343.127 20.336 342.583 20.656C342.039 20.992 341.287 21.168 340.327 21.184C339.031 21.2 337.935 21.048 337.039 20.728C336.159 20.424 335.471 20.072 334.975 19.672C334.479 19.288 334.183 18.984 334.087 18.76C333.991 18.536 333.943 18.312 333.943 18.088C333.959 17.864 334.079 17.68 334.303 17.536C334.543 17.392 334.943 17.32 335.503 17.32C336.063 17.32 336.479 17.368 336.751 17.464C337.039 17.576 337.247 17.696 337.375 17.824C337.503 17.952 337.615 18.056 337.711 18.136C337.855 18.248 338.071 18.432 338.359 18.688C338.663 18.96 338.991 19.096 339.343 19.096C339.583 19.096 339.791 18.928 339.967 18.592C340.143 18.256 340.271 17.808 340.351 17.248C340.431 16.688 340.447 16.072 340.399 15.4ZM339.799 7.816C339.255 7.864 338.775 8.104 338.359 8.536C337.959 8.968 337.639 9.488 337.399 10.096C337.159 10.704 337.023 11.304 336.991 11.896C336.975 12.488 337.087 12.984 337.327 13.384C337.567 13.768 337.959 13.96 338.503 13.96C339.047 13.96 339.455 13.776 339.727 13.408C340.015 13.04 340.199 12.592 340.279 12.064C340.375 11.52 340.407 10.968 340.375 10.408C340.359 9.832 340.319 9.336 340.255 8.92C340.191 8.504 340.159 8.24 340.159 8.128C340.143 7.952 340.079 7.856 339.967 7.84C339.855 7.824 339.799 7.816 339.799 7.816ZM345.652 13.936L345.364 2.08C345.364 2.08 345.364 2.016 345.364 1.888C345.38 1.76 345.436 1.608 345.532 1.432C345.628 1.256 345.796 1.104 346.036 0.975999C346.292 0.848 346.66 0.784 347.14 0.784C347.78 0.784 348.252 0.856 348.556 1C348.876 1.144 349.084 1.328 349.18 1.552C349.276 1.776 349.316 2 349.3 2.224C349.284 2.384 349.276 2.688 349.276 3.136C349.292 3.568 349.3 4.032 349.3 4.528C349.316 5.008 349.324 5.424 349.324 5.776C349.34 6.128 349.348 6.304 349.348 6.304C349.348 6.304 349.508 6.264 349.828 6.184C350.164 6.104 350.596 6.048 351.124 6.016C351.652 5.984 352.212 6.048 352.804 6.208C353.396 6.352 353.956 6.656 354.484 7.12C354.676 7.28 354.828 7.576 354.94 8.008C355.068 8.44 355.164 8.944 355.228 9.52C355.308 10.08 355.364 10.664 355.396 11.272C355.428 11.864 355.444 12.416 355.444 12.928C355.46 13.44 355.46 13.856 355.444 14.176C355.444 14.496 355.444 14.656 355.444 14.656C355.444 14.656 355.444 14.728 355.444 14.872C355.444 15 355.404 15.152 355.324 15.328C355.26 15.504 355.116 15.664 354.892 15.808C354.668 15.936 354.324 16 353.86 16C353.252 16 352.836 15.928 352.612 15.784C352.388 15.64 352.268 15.448 352.252 15.208C352.236 14.952 352.228 14.672 352.228 14.368C352.228 14.192 352.22 13.904 352.204 13.504C352.188 13.104 352.172 12.664 352.156 12.184C352.14 11.688 352.124 11.216 352.108 10.768C352.092 10.32 352.076 9.952 352.06 9.664C352.044 9.376 352.036 9.232 352.036 9.232C352.036 9.232 352.02 9.136 351.988 8.944C351.972 8.736 351.892 8.536 351.748 8.344C351.604 8.152 351.364 8.064 351.028 8.08C350.772 8.096 350.556 8.216 350.38 8.44C350.204 8.648 350.06 8.912 349.948 9.232C349.852 9.536 349.78 9.832 349.732 10.12C349.684 10.392 349.66 10.592 349.66 10.72C349.66 10.848 349.66 11.104 349.66 11.488C349.676 11.872 349.684 12.288 349.684 12.736C349.684 13.168 349.684 13.544 349.684 13.864C349.7 14.168 349.708 14.32 349.708 14.32C349.708 14.32 349.7 14.408 349.684 14.584C349.668 14.744 349.604 14.936 349.492 15.16C349.38 15.384 349.18 15.584 348.892 15.76C348.62 15.92 348.22 16 347.692 16C347.084 16 346.628 15.896 346.324 15.688C346.036 15.48 345.844 15.24 345.748 14.968C345.668 14.696 345.628 14.456 345.628 14.248C345.644 14.04 345.652 13.936 345.652 13.936ZM356.849 2.896C356.833 2.496 356.953 2.176 357.209 1.936C357.465 1.68 358.033 1.528 358.913 1.48C359.505 1.448 359.937 1.52 360.209 1.696C360.481 1.872 360.649 2.056 360.713 2.248C360.793 2.424 360.833 2.512 360.833 2.512L360.977 4.648C360.977 4.648 361.105 4.648 361.361 4.648C361.633 4.648 361.937 4.68 362.273 4.744C362.625 4.792 362.929 4.896 363.185 5.056C363.457 5.216 363.593 5.464 363.593 5.8C363.593 6.136 363.465 6.384 363.209 6.544C362.953 6.704 362.657 6.816 362.321 6.88C361.985 6.928 361.681 6.952 361.409 6.952C361.153 6.952 361.025 6.952 361.025 6.952C361.025 6.952 361.025 7.136 361.025 7.504C361.041 7.856 361.049 8.32 361.049 8.896C361.049 9.456 361.057 10.056 361.073 10.696C361.089 11.336 361.097 11.952 361.097 12.544C361.097 13.12 361.097 13.608 361.097 14.008C361.113 14.392 361.121 14.616 361.121 14.68C361.121 14.792 361.081 14.952 361.001 15.16C360.937 15.368 360.753 15.56 360.449 15.736C360.161 15.912 359.681 16 359.009 16C358.513 16 358.129 15.944 357.857 15.832C357.585 15.704 357.385 15.568 357.257 15.424C357.145 15.264 357.081 15.128 357.065 15.016C357.049 14.888 357.041 14.824 357.041 14.824L356.849 2.896ZM369.886 12.16C368.686 12.128 367.75 12.008 367.078 11.8C366.406 11.592 365.926 11.344 365.638 11.056C365.366 10.768 365.198 10.488 365.134 10.216C365.07 9.928 365.038 9.704 365.038 9.544C365.038 9.384 365.062 9.136 365.11 8.8C365.158 8.464 365.31 8.112 365.566 7.744C365.822 7.376 366.262 7.056 366.886 6.784C367.526 6.512 368.43 6.36 369.598 6.328C370.878 6.296 371.862 6.368 372.55 6.544C373.238 6.72 373.726 6.928 374.014 7.168C374.318 7.408 374.502 7.624 374.566 7.816C374.63 7.992 374.662 8.08 374.662 8.08C374.662 8.288 374.638 8.504 374.59 8.728C374.542 8.936 374.398 9.112 374.158 9.256C373.934 9.384 373.542 9.44 372.982 9.424C372.534 9.408 372.198 9.368 371.974 9.304C371.75 9.24 371.582 9.168 371.47 9.088C371.374 8.992 371.27 8.896 371.158 8.8C371.062 8.704 370.91 8.624 370.702 8.56C370.51 8.496 370.198 8.456 369.766 8.44C369.238 8.424 368.838 8.464 368.566 8.56C368.31 8.64 368.134 8.744 368.038 8.872C367.958 9 367.91 9.112 367.894 9.208C367.894 9.288 367.894 9.328 367.894 9.328C367.894 9.328 367.91 9.392 367.942 9.52C367.99 9.648 368.15 9.776 368.422 9.904C368.71 10.032 369.222 10.104 369.958 10.12C371.35 10.168 372.414 10.304 373.15 10.528C373.902 10.736 374.43 10.984 374.734 11.272C375.054 11.56 375.238 11.848 375.286 12.136C375.35 12.408 375.382 12.624 375.382 12.784C375.382 12.944 375.326 13.192 375.214 13.528C375.118 13.864 374.902 14.216 374.566 14.584C374.23 14.952 373.71 15.272 373.006 15.544C372.318 15.816 371.39 15.968 370.222 16C368.958 16.032 367.974 15.96 367.27 15.784C366.582 15.608 366.086 15.4 365.782 15.16C365.494 14.92 365.318 14.712 365.254 14.536C365.19 14.344 365.158 14.248 365.158 14.248C365.158 14.024 365.182 13.808 365.23 13.6C365.294 13.392 365.438 13.224 365.662 13.096C365.902 12.952 366.294 12.888 366.838 12.904C367.302 12.92 367.638 12.96 367.846 13.024C368.07 13.088 368.238 13.168 368.35 13.264C368.462 13.344 368.566 13.432 368.662 13.528C368.758 13.624 368.91 13.704 369.118 13.768C369.326 13.832 369.638 13.872 370.054 13.888C370.582 13.904 370.974 13.872 371.23 13.792C371.502 13.696 371.686 13.584 371.782 13.456C371.878 13.328 371.926 13.224 371.926 13.144C371.926 13.048 371.926 13 371.926 13C371.926 13 371.91 12.936 371.878 12.808C371.846 12.664 371.686 12.528 371.398 12.4C371.126 12.256 370.622 12.176 369.886 12.16ZM383.685 14.368C383.685 14.192 383.661 13.888 383.613 13.456C383.565 13.024 383.501 12.536 383.421 11.992C383.357 11.432 383.285 10.88 383.205 10.336C383.125 9.776 383.037 9.28 382.941 8.848C382.861 8.4 382.789 8.08 382.725 7.888C382.565 7.408 382.653 7.072 382.989 6.88C383.341 6.672 383.829 6.536 384.453 6.472C385.077 6.408 385.525 6.456 385.797 6.616C386.085 6.76 386.229 6.832 386.229 6.832C386.469 6.592 386.861 6.424 387.405 6.328C387.965 6.232 388.549 6.192 389.157 6.208C389.941 6.224 390.509 6.344 390.861 6.568C391.213 6.792 391.389 7.032 391.389 7.288C391.389 7.48 391.365 7.624 391.317 7.72C391.269 7.816 391.077 7.912 390.741 8.008C390.421 8.088 389.837 8.232 388.989 8.44C388.493 8.552 388.125 8.824 387.885 9.256C387.645 9.672 387.493 10.16 387.429 10.72C387.381 11.264 387.381 11.808 387.429 12.352C387.477 12.88 387.533 13.328 387.597 13.696C387.661 14.048 387.693 14.24 387.693 14.272C387.693 14.304 387.701 14.416 387.717 14.608C387.749 14.784 387.725 14.984 387.645 15.208C387.581 15.416 387.413 15.6 387.141 15.76C386.869 15.92 386.437 16 385.845 16C385.253 16 384.805 15.92 384.501 15.76C384.197 15.584 383.989 15.392 383.877 15.184C383.765 14.976 383.701 14.792 383.685 14.632C383.685 14.456 383.685 14.368 383.685 14.368ZM402.122 8.752C402.074 9.552 401.85 10.2 401.45 10.696C401.05 11.176 400.562 11.544 399.986 11.8C399.426 12.04 398.866 12.208 398.306 12.304C397.746 12.384 397.274 12.424 396.89 12.424C396.522 12.424 396.338 12.424 396.338 12.424C396.434 12.984 396.57 13.384 396.746 13.624C396.922 13.864 397.114 14 397.322 14.032C397.546 14.064 397.754 14.048 397.946 13.984C398.138 13.904 398.29 13.816 398.402 13.72C398.53 13.624 398.594 13.576 398.594 13.576C398.594 13.576 398.682 13.504 398.858 13.36C399.034 13.216 399.306 13.08 399.674 12.952C400.058 12.808 400.538 12.736 401.114 12.736C401.77 12.736 402.21 12.824 402.434 13C402.674 13.16 402.786 13.352 402.77 13.576C402.77 13.784 402.722 13.976 402.626 14.152C402.546 14.312 402.506 14.392 402.506 14.392C402.506 14.392 402.434 14.472 402.29 14.632C402.162 14.776 401.922 14.952 401.57 15.16C401.218 15.368 400.73 15.56 400.106 15.736C399.482 15.896 398.682 15.984 397.706 16C396.762 16.016 395.97 15.888 395.33 15.616C394.69 15.344 394.162 14.992 393.746 14.56C393.33 14.112 393.01 13.648 392.786 13.168C392.578 12.672 392.426 12.216 392.33 11.8C392.25 11.368 392.21 11.032 392.21 10.792C392.21 10.552 392.226 10.24 392.258 9.856C392.306 9.472 392.41 9.072 392.57 8.656C392.746 8.224 393.01 7.816 393.362 7.432C393.714 7.048 394.194 6.736 394.802 6.496C395.426 6.256 396.218 6.128 397.178 6.112C398.378 6.096 399.314 6.2 399.986 6.424C400.658 6.648 401.146 6.92 401.45 7.24C401.754 7.56 401.938 7.864 402.002 8.152C402.082 8.44 402.122 8.64 402.122 8.752ZM396.002 10.768C396.978 10.688 397.706 10.48 398.186 10.144C398.666 9.808 398.946 9.432 399.026 9.016C399.106 8.6 399.026 8.248 398.786 7.96C398.562 7.656 398.218 7.52 397.754 7.552C397.29 7.568 396.938 7.744 396.698 8.08C396.458 8.4 396.29 8.776 396.194 9.208C396.098 9.624 396.042 9.992 396.026 10.312C396.01 10.616 396.002 10.768 396.002 10.768ZM409.261 12.16C408.061 12.128 407.125 12.008 406.453 11.8C405.781 11.592 405.301 11.344 405.013 11.056C404.741 10.768 404.573 10.488 404.509 10.216C404.445 9.928 404.413 9.704 404.413 9.544C404.413 9.384 404.437 9.136 404.485 8.8C404.533 8.464 404.685 8.112 404.941 7.744C405.197 7.376 405.637 7.056 406.261 6.784C406.901 6.512 407.805 6.36 408.973 6.328C410.253 6.296 411.237 6.368 411.925 6.544C412.613 6.72 413.101 6.928 413.389 7.168C413.693 7.408 413.877 7.624 413.941 7.816C414.005 7.992 414.037 8.08 414.037 8.08C414.037 8.288 414.013 8.504 413.965 8.728C413.917 8.936 413.773 9.112 413.533 9.256C413.309 9.384 412.917 9.44 412.357 9.424C411.909 9.408 411.573 9.368 411.349 9.304C411.125 9.24 410.957 9.168 410.845 9.088C410.749 8.992 410.645 8.896 410.533 8.8C410.437 8.704 410.285 8.624 410.077 8.56C409.885 8.496 409.573 8.456 409.141 8.44C408.613 8.424 408.213 8.464 407.941 8.56C407.685 8.64 407.509 8.744 407.413 8.872C407.333 9 407.285 9.112 407.269 9.208C407.269 9.288 407.269 9.328 407.269 9.328C407.269 9.328 407.285 9.392 407.317 9.52C407.365 9.648 407.525 9.776 407.797 9.904C408.085 10.032 408.597 10.104 409.333 10.12C410.725 10.168 411.789 10.304 412.525 10.528C413.277 10.736 413.805 10.984 414.109 11.272C414.429 11.56 414.613 11.848 414.661 12.136C414.725 12.408 414.757 12.624 414.757 12.784C414.757 12.944 414.701 13.192 414.589 13.528C414.493 13.864 414.277 14.216 413.941 14.584C413.605 14.952 413.085 15.272 412.381 15.544C411.693 15.816 410.765 15.968 409.597 16C408.333 16.032 407.349 15.96 406.645 15.784C405.957 15.608 405.461 15.4 405.157 15.16C404.869 14.92 404.693 14.712 404.629 14.536C404.565 14.344 404.533 14.248 404.533 14.248C404.533 14.024 404.557 13.808 404.605 13.6C404.669 13.392 404.813 13.224 405.037 13.096C405.277 12.952 405.669 12.888 406.213 12.904C406.677 12.92 407.013 12.96 407.221 13.024C407.445 13.088 407.613 13.168 407.725 13.264C407.837 13.344 407.941 13.432 408.037 13.528C408.133 13.624 408.285 13.704 408.493 13.768C408.701 13.832 409.013 13.872 409.429 13.888C409.957 13.904 410.349 13.872 410.605 13.792C410.877 13.696 411.061 13.584 411.157 13.456C411.253 13.328 411.301 13.224 411.301 13.144C411.301 13.048 411.301 13 411.301 13C411.301 13 411.285 12.936 411.253 12.808C411.221 12.664 411.061 12.528 410.773 12.4C410.501 12.256 409.997 12.176 409.261 12.16ZM425.466 8.752C425.418 9.552 425.194 10.2 424.794 10.696C424.394 11.176 423.906 11.544 423.33 11.8C422.77 12.04 422.21 12.208 421.65 12.304C421.09 12.384 420.618 12.424 420.234 12.424C419.866 12.424 419.682 12.424 419.682 12.424C419.778 12.984 419.914 13.384 420.09 13.624C420.266 13.864 420.458 14 420.666 14.032C420.89 14.064 421.098 14.048 421.29 13.984C421.482 13.904 421.634 13.816 421.746 13.72C421.874 13.624 421.938 13.576 421.938 13.576C421.938 13.576 422.026 13.504 422.202 13.36C422.378 13.216 422.65 13.08 423.018 12.952C423.402 12.808 423.882 12.736 424.458 12.736C425.114 12.736 425.554 12.824 425.778 13C426.018 13.16 426.13 13.352 426.114 13.576C426.114 13.784 426.066 13.976 425.97 14.152C425.89 14.312 425.85 14.392 425.85 14.392C425.85 14.392 425.778 14.472 425.634 14.632C425.506 14.776 425.266 14.952 424.914 15.16C424.562 15.368 424.074 15.56 423.45 15.736C422.826 15.896 422.026 15.984 421.05 16C420.106 16.016 419.314 15.888 418.674 15.616C418.034 15.344 417.506 14.992 417.09 14.56C416.674 14.112 416.354 13.648 416.13 13.168C415.922 12.672 415.77 12.216 415.674 11.8C415.594 11.368 415.554 11.032 415.554 10.792C415.554 10.552 415.57 10.24 415.602 9.856C415.65 9.472 415.754 9.072 415.914 8.656C416.09 8.224 416.354 7.816 416.706 7.432C417.058 7.048 417.538 6.736 418.146 6.496C418.77 6.256 419.562 6.128 420.522 6.112C421.722 6.096 422.658 6.2 423.33 6.424C424.002 6.648 424.49 6.92 424.794 7.24C425.098 7.56 425.282 7.864 425.346 8.152C425.426 8.44 425.466 8.64 425.466 8.752ZM419.346 10.768C420.322 10.688 421.05 10.48 421.53 10.144C422.01 9.808 422.29 9.432 422.37 9.016C422.45 8.6 422.37 8.248 422.13 7.96C421.906 7.656 421.562 7.52 421.098 7.552C420.634 7.568 420.282 7.744 420.042 8.08C419.802 8.4 419.634 8.776 419.538 9.208C419.442 9.624 419.386 9.992 419.37 10.312C419.354 10.616 419.346 10.768 419.346 10.768ZM428.38 14.368C428.38 14.192 428.356 13.888 428.308 13.456C428.26 13.024 428.196 12.536 428.116 11.992C428.052 11.432 427.98 10.88 427.9 10.336C427.82 9.776 427.732 9.28 427.636 8.848C427.556 8.4 427.484 8.08 427.42 7.888C427.26 7.408 427.348 7.072 427.684 6.88C428.036 6.672 428.524 6.536 429.148 6.472C429.772 6.408 430.22 6.456 430.492 6.616C430.78 6.76 430.924 6.832 430.924 6.832C431.164 6.592 431.556 6.424 432.1 6.328C432.66 6.232 433.244 6.192 433.852 6.208C434.636 6.224 435.204 6.344 435.556 6.568C435.908 6.792 436.084 7.032 436.084 7.288C436.084 7.48 436.06 7.624 436.012 7.72C435.964 7.816 435.772 7.912 435.436 8.008C435.116 8.088 434.532 8.232 433.684 8.44C433.188 8.552 432.82 8.824 432.58 9.256C432.34 9.672 432.188 10.16 432.124 10.72C432.076 11.264 432.076 11.808 432.124 12.352C432.172 12.88 432.228 13.328 432.292 13.696C432.356 14.048 432.388 14.24 432.388 14.272C432.388 14.304 432.396 14.416 432.412 14.608C432.444 14.784 432.42 14.984 432.34 15.208C432.276 15.416 432.108 15.6 431.836 15.76C431.564 15.92 431.132 16 430.54 16C429.948 16 429.5 15.92 429.196 15.76C428.892 15.584 428.684 15.392 428.572 15.184C428.46 14.976 428.396 14.792 428.38 14.632C428.38 14.456 428.38 14.368 428.38 14.368ZM439.473 14.416C439.249 13.744 439.017 13.056 438.777 12.352C438.537 11.632 438.305 10.952 438.081 10.312C437.873 9.656 437.689 9.088 437.529 8.608C437.369 8.128 437.257 7.792 437.193 7.6C437.065 7.2 437.137 6.864 437.409 6.592C437.681 6.32 438.209 6.184 438.993 6.184C439.521 6.184 439.913 6.264 440.169 6.424C440.425 6.568 440.585 6.72 440.649 6.88C440.729 7.024 440.769 7.096 440.769 7.096L441.777 11.224L441.945 12.616L442.329 10.672C442.329 10.672 442.369 10.56 442.449 10.336C442.529 10.096 442.633 9.808 442.761 9.472C442.889 9.12 443.017 8.768 443.145 8.416C443.273 8.048 443.385 7.736 443.481 7.48C443.673 6.968 443.929 6.632 444.249 6.472C444.585 6.296 445.169 6.224 446.001 6.256C446.417 6.272 446.721 6.352 446.913 6.496C447.105 6.624 447.217 6.776 447.249 6.952C447.297 7.112 447.305 7.256 447.273 7.384C447.257 7.512 447.249 7.576 447.249 7.576L443.865 14.776C443.865 14.776 443.801 14.88 443.673 15.088C443.545 15.28 443.329 15.48 443.025 15.688C442.737 15.896 442.321 16 441.777 16C441.329 16 440.953 15.92 440.649 15.76C440.361 15.6 440.129 15.416 439.953 15.208C439.777 15 439.649 14.816 439.569 14.656C439.505 14.496 439.473 14.416 439.473 14.416ZM458.138 8.752C458.09 9.552 457.866 10.2 457.466 10.696C457.066 11.176 456.578 11.544 456.002 11.8C455.442 12.04 454.882 12.208 454.322 12.304C453.762 12.384 453.29 12.424 452.906 12.424C452.538 12.424 452.354 12.424 452.354 12.424C452.45 12.984 452.586 13.384 452.762 13.624C452.938 13.864 453.13 14 453.338 14.032C453.562 14.064 453.77 14.048 453.962 13.984C454.154 13.904 454.306 13.816 454.418 13.72C454.546 13.624 454.61 13.576 454.61 13.576C454.61 13.576 454.698 13.504 454.874 13.36C455.05 13.216 455.322 13.08 455.69 12.952C456.074 12.808 456.554 12.736 457.13 12.736C457.786 12.736 458.226 12.824 458.45 13C458.69 13.16 458.802 13.352 458.786 13.576C458.786 13.784 458.738 13.976 458.642 14.152C458.562 14.312 458.522 14.392 458.522 14.392C458.522 14.392 458.45 14.472 458.306 14.632C458.178 14.776 457.938 14.952 457.586 15.16C457.234 15.368 456.746 15.56 456.122 15.736C455.498 15.896 454.698 15.984 453.722 16C452.778 16.016 451.986 15.888 451.346 15.616C450.706 15.344 450.178 14.992 449.762 14.56C449.346 14.112 449.026 13.648 448.802 13.168C448.594 12.672 448.442 12.216 448.346 11.8C448.266 11.368 448.226 11.032 448.226 10.792C448.226 10.552 448.242 10.24 448.274 9.856C448.322 9.472 448.426 9.072 448.586 8.656C448.762 8.224 449.026 7.816 449.378 7.432C449.73 7.048 450.21 6.736 450.818 6.496C451.442 6.256 452.234 6.128 453.194 6.112C454.394 6.096 455.33 6.2 456.002 6.424C456.674 6.648 457.162 6.92 457.466 7.24C457.77 7.56 457.954 7.864 458.018 8.152C458.098 8.44 458.138 8.64 458.138 8.752ZM452.018 10.768C452.994 10.688 453.722 10.48 454.202 10.144C454.682 9.808 454.962 9.432 455.042 9.016C455.122 8.6 455.042 8.248 454.802 7.96C454.578 7.656 454.234 7.52 453.77 7.552C453.306 7.568 452.954 7.744 452.714 8.08C452.474 8.4 452.306 8.776 452.21 9.208C452.114 9.624 452.058 9.992 452.042 10.312C452.026 10.616 452.018 10.768 452.018 10.768ZM468.036 0.352C468.036 0.352 468.132 0.368 468.324 0.399999C468.532 0.415999 468.764 0.463999 469.02 0.543999C469.276 0.607999 469.508 0.719999 469.716 0.879999C469.94 1.024 470.06 1.232 470.076 1.504C470.092 1.68 470.116 2.064 470.148 2.656C470.18 3.232 470.212 3.92 470.244 4.72C470.292 5.52 470.332 6.352 470.364 7.216C470.412 8.064 470.452 8.864 470.484 9.616C470.516 10.352 470.54 10.952 470.556 11.416C470.588 11.88 470.604 12.112 470.604 12.112C470.604 12.112 470.596 12.208 470.58 12.4C470.58 12.592 470.532 12.832 470.436 13.12C470.356 13.408 470.204 13.688 469.98 13.96C469.5 14.552 468.892 15.04 468.156 15.424C467.42 15.808 466.412 16 465.132 16C464.284 16 463.468 15.84 462.684 15.52C461.916 15.2 461.284 14.696 460.788 14.008C460.308 13.304 460.076 12.392 460.092 11.272C460.108 10.424 460.292 9.68 460.644 9.04C461.012 8.4 461.492 7.872 462.084 7.456C462.676 7.024 463.332 6.704 464.052 6.496C464.788 6.288 465.524 6.184 466.26 6.184L466.092 2.032C466.092 2.032 466.076 1.96 466.044 1.816C466.012 1.656 466.028 1.472 466.092 1.264C466.172 1.056 466.356 0.863999 466.644 0.688C466.932 0.511999 467.396 0.399999 468.036 0.352ZM466.332 8.272C465.964 8.24 465.612 8.376 465.276 8.68C464.94 8.984 464.66 9.376 464.436 9.856C464.228 10.32 464.124 10.784 464.124 11.248C464.124 11.936 464.236 12.528 464.46 13.024C464.7 13.52 465.012 13.768 465.396 13.768C465.652 13.768 465.868 13.664 466.044 13.456C466.22 13.248 466.356 13.04 466.452 12.832C466.548 12.608 466.596 12.496 466.596 12.496L466.332 8.272Z" fill="white"/>
</svg>
