<svg width="367" height="53" viewBox="0 0 367 53" fill="none" xmlns="http://www.w3.org/2000/svg">
<path d="M7.01465 11.3565C5.19173 11.3565 3.69922 10.821 2.53711 9.75006C1.375 8.65631 0.793945 7.3233 0.793945 5.75104C0.793945 4.1332 1.375 2.81158 2.53711 1.78619C3.69922 0.760803 5.19173 0.248108 7.01465 0.248108C8.86035 0.248108 10.3529 0.760803 11.4922 1.78619C12.6543 2.81158 13.2354 4.1332 13.2354 5.75104C13.2354 7.39166 12.6543 8.73606 11.4922 9.78424C10.3529 10.8324 8.86035 11.3565 7.01465 11.3565ZM12.3467 51.8936H1.5459V16.8936H12.3467V51.8936ZM32.2393 51.8936H21.4385V0.0772095H32.2393V51.8936ZM52.1318 51.8936H41.3311V0.0772095H52.1318V51.8936ZM94.4805 51.8936H83.7139V46.5616H83.543C80.877 50.6859 77.3109 52.7481 72.8447 52.7481C64.7327 52.7481 60.6768 47.8376 60.6768 38.0167V16.8936H71.4434V37.0596C71.4434 42.0043 73.403 44.4766 77.3223 44.4766C79.2591 44.4766 80.8086 43.8044 81.9707 42.46C83.1328 41.0928 83.7139 39.2471 83.7139 36.9229V16.8936H94.4805V51.8936ZM159.183 51.8936H148.416V31.9327C148.416 26.8513 146.548 24.3106 142.811 24.3106C141.033 24.3106 139.586 25.074 138.47 26.6006C137.353 28.1273 136.795 30.03 136.795 32.3087V51.8936H125.994V31.7276C125.994 26.7829 124.16 24.3106 120.491 24.3106C118.646 24.3106 117.164 25.0398 116.048 26.4981C114.954 27.9564 114.407 29.9389 114.407 32.4454V51.8936H103.606V16.8936H114.407V22.3624H114.544C115.66 20.4939 117.221 18.9786 119.227 17.8165C121.255 16.6316 123.465 16.0391 125.857 16.0391C130.802 16.0391 134.186 18.2152 136.009 22.5674C138.675 18.2152 142.594 16.0391 147.767 16.0391C155.377 16.0391 159.183 20.7331 159.183 30.1212V51.8936ZM173.196 11.3565C171.373 11.3565 169.881 10.821 168.719 9.75006C167.557 8.65631 166.976 7.3233 166.976 5.75104C166.976 4.1332 167.557 2.81158 168.719 1.78619C169.881 0.760803 171.373 0.248108 173.196 0.248108C175.042 0.248108 176.535 0.760803 177.674 1.78619C178.836 2.81158 179.417 4.1332 179.417 5.75104C179.417 7.39166 178.836 8.73606 177.674 9.78424C176.535 10.8324 175.042 11.3565 173.196 11.3565ZM178.528 51.8936H167.728V16.8936H178.528V51.8936ZM221.424 51.8936H210.657V32.4454C210.657 27.0222 208.72 24.3106 204.847 24.3106C202.978 24.3106 201.44 25.0284 200.232 26.4639C199.025 27.8995 198.421 29.7224 198.421 31.9327V51.8936H187.62V16.8936H198.421V22.4307H198.558C201.132 18.1697 204.881 16.0391 209.803 16.0391C217.55 16.0391 221.424 20.8471 221.424 30.463V51.8936ZM259.124 51.8936H248.904V46.8692H248.768C246.421 50.7885 242.946 52.7481 238.343 52.7481C234.948 52.7481 232.27 51.7911 230.311 49.877C228.374 47.9402 227.405 45.3653 227.405 42.1524C227.405 35.362 231.427 31.4428 239.471 30.3946L248.973 29.1299C248.973 25.3018 246.899 23.3878 242.752 23.3878C238.582 23.3878 234.617 24.6296 230.857 27.1133V18.9786C232.361 18.2038 234.412 17.5202 237.01 16.9278C239.63 16.3353 242.011 16.0391 244.153 16.0391C254.134 16.0391 259.124 21.018 259.124 30.9756V51.8936ZM248.973 37.6749V35.3165L242.615 36.1368C239.106 36.5925 237.352 38.1762 237.352 40.8878C237.352 42.1182 237.773 43.1322 238.616 43.9297C239.482 44.7045 240.644 45.0919 242.103 45.0919C244.131 45.0919 245.783 44.3969 247.059 43.0069C248.335 41.5941 248.973 39.8168 248.973 37.6749ZM288.826 51.4835C287.231 52.3266 284.827 52.7481 281.614 52.7481C274.004 52.7481 270.198 48.7947 270.198 40.8878V24.8575H264.524V16.8936H270.198V9.3399L280.965 6.26373V16.8936H288.826V24.8575H280.965V39.0079C280.965 42.6537 282.412 44.4766 285.306 44.4766C286.445 44.4766 287.618 44.1462 288.826 43.4854V51.4835ZM326.116 37.4698H303.284C303.649 42.5512 306.85 45.0919 312.889 45.0919C316.74 45.0919 320.123 44.1804 323.04 42.3575V50.1505C319.804 51.8822 315.6 52.7481 310.428 52.7481C304.777 52.7481 300.39 51.1872 297.269 48.0655C294.147 44.921 292.586 40.546 292.586 34.9405C292.586 29.1299 294.272 24.5271 297.645 21.1319C301.017 17.7367 305.164 16.0391 310.086 16.0391C315.19 16.0391 319.132 17.5544 321.912 20.585C324.715 23.6156 326.116 27.7286 326.116 32.9239V37.4698ZM316.102 30.8389C316.102 25.8259 314.074 23.3194 310.018 23.3194C308.286 23.3194 306.782 24.0372 305.506 25.4727C304.253 26.9083 303.489 28.697 303.216 30.8389H316.102ZM366.79 51.8936H355.989V47.0743H355.853C353.392 50.8568 349.78 52.7481 345.018 52.7481C340.643 52.7481 337.122 51.21 334.456 48.1339C331.79 45.0349 330.457 40.7169 330.457 35.1797C330.457 29.392 331.927 24.7549 334.866 21.2686C337.806 17.7823 341.657 16.0391 346.419 16.0391C350.931 16.0391 354.075 17.657 355.853 20.8926H355.989V0.0772095H366.79V51.8936ZM356.194 34.8721V32.2403C356.194 29.9616 355.534 28.0704 354.212 26.5665C352.89 25.0626 351.17 24.3106 349.051 24.3106C346.658 24.3106 344.79 25.2562 343.445 27.1475C342.101 29.016 341.429 31.5909 341.429 34.8721C341.429 37.9483 342.078 40.3181 343.377 41.9815C344.676 43.6449 346.476 44.4766 348.777 44.4766C350.965 44.4766 352.742 43.5993 354.109 41.8448C355.499 40.0902 356.194 37.766 356.194 34.8721Z" fill="#36413E"/>
</svg>
