<svg width="112" height="17" viewBox="0 0 112 17" fill="none" xmlns="http://www.w3.org/2000/svg">
<path d="M5.76268 15.963H0.242681V15.183C0.442681 15.0763 0.649347 14.9897 0.862681 14.923C1.07601 14.843 1.30935 14.7697 1.56268 14.703V7.38301L0.242681 7.22301V6.44301C0.442681 6.36301 0.689347 6.28301 0.982681 6.20301C1.28935 6.12301 1.60935 6.05635 1.94268 6.00301C2.27601 5.93635 2.60268 5.88301 2.92268 5.84301C3.24268 5.78968 3.52268 5.74968 3.76268 5.72301H4.44268V14.703C4.70935 14.7697 4.94935 14.843 5.16268 14.923C5.37601 14.9897 5.57601 15.0763 5.76268 15.183V15.963ZM1.22268 2.68301C1.22268 2.21634 1.38268 1.84968 1.70268 1.58301C2.02268 1.31635 2.43601 1.18301 2.94268 1.18301C3.44935 1.18301 3.86268 1.31635 4.18268 1.58301C4.50268 1.84968 4.66268 2.21634 4.66268 2.68301C4.66268 3.13635 4.50268 3.49635 4.18268 3.76301C3.86268 4.02968 3.44935 4.16301 2.94268 4.16301C2.43601 4.16301 2.02268 4.02968 1.70268 3.76301C1.38268 3.49635 1.22268 3.13635 1.22268 2.68301ZM12.4033 15.963H6.88331V15.183C7.32331 14.9697 7.76331 14.8097 8.20331 14.703V2.58301L6.68331 2.42301V1.64301C6.85664 1.56301 7.09664 1.48301 7.40331 1.40301C7.70997 1.32301 8.03664 1.25635 8.38331 1.20301C8.74331 1.13635 9.09664 1.08301 9.44331 1.04301C9.80331 0.989678 10.1233 0.949678 10.4033 0.923012H11.0833V14.703C11.5233 14.8097 11.9633 14.9697 12.4033 15.183V15.963ZM19.0439 15.963H13.5239V15.183C13.9639 14.9697 14.4039 14.8097 14.8439 14.703V2.58301L13.3239 2.42301V1.64301C13.4973 1.56301 13.7373 1.48301 14.0439 1.40301C14.3506 1.32301 14.6773 1.25635 15.0239 1.20301C15.3839 1.13635 15.7373 1.08301 16.0839 1.04301C16.4439 0.989678 16.7639 0.949678 17.0439 0.923012H17.7239V14.703C18.1639 14.8097 18.6039 14.9697 19.0439 15.183V15.963ZM20.9646 12.003C20.9646 11.163 20.9846 10.383 21.0246 9.66301C21.0646 8.94301 21.0846 8.18301 21.0846 7.38301L19.7646 7.22301V6.44301C19.9779 6.36301 20.2379 6.28301 20.5446 6.20301C20.8646 6.12301 21.1912 6.05635 21.5246 6.00301C21.8579 5.93635 22.1779 5.88301 22.4846 5.84301C22.8046 5.78968 23.0712 5.74968 23.2846 5.72301H23.9646C23.9646 6.72301 23.9446 7.70968 23.9046 8.68301C23.8646 9.64301 23.8446 10.5897 23.8446 11.523C23.8446 12.6163 23.9512 13.403 24.1646 13.883C24.3912 14.363 24.8046 14.603 25.4046 14.603C25.8179 14.603 26.1979 14.4497 26.5446 14.143C26.9046 13.823 27.1979 13.3163 27.4246 12.623V7.38301L26.1246 7.22301V6.44301C26.3246 6.36301 26.5712 6.28301 26.8646 6.20301C27.1712 6.12301 27.4846 6.05635 27.8046 6.00301C28.1379 5.93635 28.4646 5.88301 28.7846 5.84301C29.1046 5.78968 29.3846 5.74968 29.6246 5.72301H30.3046V14.543L31.6246 14.703V15.403C31.4379 15.483 31.2046 15.563 30.9246 15.643C30.6446 15.723 30.3512 15.803 30.0446 15.883C29.7379 15.9497 29.4312 16.003 29.1246 16.043C28.8312 16.0963 28.5646 16.1363 28.3246 16.163H27.6446L27.5046 13.783H27.4246C27.3579 14.063 27.2379 14.3497 27.0646 14.643C26.8912 14.923 26.6646 15.183 26.3846 15.423C26.1179 15.6497 25.7979 15.8363 25.4246 15.983C25.0512 16.1297 24.6379 16.203 24.1846 16.203C23.6779 16.203 23.2246 16.1363 22.8246 16.003C22.4379 15.883 22.1046 15.663 21.8246 15.343C21.5446 15.023 21.3312 14.5963 21.1846 14.063C21.0379 13.5163 20.9646 12.8297 20.9646 12.003ZM43.866 15.963H38.866V15.183C38.9993 15.103 39.146 15.023 39.306 14.943C39.4793 14.8497 39.666 14.7697 39.866 14.703V10.723C39.866 10.1097 39.846 9.58968 39.806 9.16301C39.7793 8.73635 39.7126 8.38968 39.606 8.12301C39.4993 7.84301 39.3526 7.64301 39.166 7.52301C38.9793 7.38968 38.7393 7.32301 38.446 7.32301C38.0193 7.32301 37.646 7.48968 37.326 7.82301C37.0193 8.14301 36.7926 8.56968 36.646 9.10301V14.703C37.006 14.8097 37.3393 14.9697 37.646 15.183V15.963H32.446V15.183C32.6326 15.0897 32.8393 15.003 33.066 14.923C33.2926 14.843 33.526 14.7697 33.766 14.703V7.38301L32.446 7.22301V6.44301C32.6593 6.34968 32.9193 6.26301 33.226 6.18301C33.546 6.10301 33.8726 6.03635 34.206 5.98301C34.5393 5.91635 34.8593 5.86301 35.166 5.82301C35.486 5.78301 35.7526 5.74968 35.966 5.72301H36.646V7.98301H36.666C36.8793 7.35635 37.2526 6.82301 37.786 6.38301C38.3326 5.94301 38.986 5.72301 39.746 5.72301C40.066 5.72301 40.3793 5.75635 40.686 5.82301C40.9926 5.88968 41.2726 6.01635 41.526 6.20301C41.7926 6.37635 42.0193 6.62301 42.206 6.94301C42.3926 7.26301 42.526 7.67635 42.606 8.18301C42.846 7.44968 43.246 6.85635 43.806 6.40301C44.366 5.94968 45.046 5.72301 45.846 5.72301C46.3393 5.72301 46.7726 5.78968 47.146 5.92301C47.5326 6.04301 47.8526 6.26301 48.106 6.58301C48.3726 6.90301 48.5726 7.33635 48.706 7.88301C48.8393 8.42968 48.906 9.12301 48.906 9.96301V14.703C49.3593 14.783 49.7993 14.943 50.226 15.183V15.963H45.026V15.183C45.3326 14.983 45.666 14.823 46.026 14.703V10.363C46.026 9.32301 45.926 8.55635 45.726 8.06301C45.5393 7.56968 45.126 7.32301 44.486 7.32301C44.006 7.32301 43.626 7.50301 43.346 7.86301C43.0793 8.22301 42.8793 8.70301 42.746 9.30301V14.703C42.9726 14.7697 43.1726 14.843 43.346 14.923C43.5326 15.003 43.706 15.0897 43.866 15.183V15.963ZM56.6025 15.963H51.0825V15.183C51.2825 15.0763 51.4892 14.9897 51.7025 14.923C51.9159 14.843 52.1492 14.7697 52.4025 14.703V7.38301L51.0825 7.22301V6.44301C51.2825 6.36301 51.5292 6.28301 51.8225 6.20301C52.1292 6.12301 52.4492 6.05635 52.7825 6.00301C53.1159 5.93635 53.4425 5.88301 53.7625 5.84301C54.0825 5.78968 54.3625 5.74968 54.6025 5.72301H55.2825V14.703C55.5492 14.7697 55.7892 14.843 56.0025 14.923C56.2159 14.9897 56.4159 15.0763 56.6025 15.183V15.963ZM52.0625 2.68301C52.0625 2.21634 52.2225 1.84968 52.5425 1.58301C52.8625 1.31635 53.2759 1.18301 53.7825 1.18301C54.2892 1.18301 54.7025 1.31635 55.0225 1.58301C55.3425 1.84968 55.5025 2.21634 55.5025 2.68301C55.5025 3.13635 55.3425 3.49635 55.0225 3.76301C54.7025 4.02968 54.2892 4.16301 53.7825 4.16301C53.2759 4.16301 52.8625 4.02968 52.5425 3.76301C52.2225 3.49635 52.0625 3.13635 52.0625 2.68301ZM69.7431 15.963H64.4431V15.183C64.6165 15.0897 64.7831 15.0097 64.9431 14.943C65.1165 14.863 65.3165 14.783 65.5431 14.703V10.003C65.5431 9.16301 65.4231 8.50968 65.1831 8.04301C64.9431 7.56301 64.5165 7.32301 63.9031 7.32301C63.3965 7.32301 62.9565 7.48968 62.5831 7.82301C62.2231 8.14301 61.9498 8.58301 61.7631 9.14301V14.703C61.9765 14.7563 62.1631 14.823 62.3231 14.903C62.4965 14.9697 62.6765 15.063 62.8631 15.183V15.963H57.5631V15.183C57.8965 15.0097 58.3365 14.8497 58.8831 14.703V7.38301L57.5631 7.22301V6.44301C57.7365 6.36301 57.9631 6.28968 58.2431 6.22301C58.5231 6.14301 58.8231 6.06968 59.1431 6.00301C59.4765 5.93635 59.8098 5.88301 60.1431 5.84301C60.4898 5.78968 60.8031 5.74968 61.0831 5.72301H61.7631V7.78301H61.7831C62.0631 7.22301 62.4831 6.74301 63.0431 6.34301C63.6031 5.92968 64.2831 5.72301 65.0831 5.72301C65.6031 5.72301 66.0698 5.78968 66.4831 5.92301C66.8965 6.04301 67.2431 6.26301 67.5231 6.58301C67.8165 6.90301 68.0365 7.33635 68.1831 7.88301C68.3432 8.41635 68.4232 9.09635 68.4232 9.92301V14.703C68.9565 14.7963 69.3965 14.9563 69.7431 15.183V15.963ZM79.3742 13.063C79.3742 13.3563 79.3742 13.6097 79.3742 13.823C79.3876 14.0363 79.4076 14.263 79.4342 14.503L80.8142 14.703V15.403C80.6542 15.483 80.4342 15.563 80.1542 15.643C79.8876 15.723 79.6009 15.803 79.2942 15.883C79.0009 15.9497 78.7076 16.003 78.4142 16.043C78.1209 16.0963 77.8609 16.1363 77.6342 16.163H76.9542C76.8209 15.8563 76.7409 15.5497 76.7142 15.243C76.6876 14.9363 76.6676 14.563 76.6542 14.123H76.5542C76.4876 14.3897 76.3742 14.6497 76.2142 14.903C76.0542 15.143 75.8476 15.363 75.5942 15.563C75.3542 15.7497 75.0676 15.903 74.7342 16.023C74.4009 16.143 74.0276 16.203 73.6142 16.203C73.1742 16.203 72.7676 16.1363 72.3942 16.003C72.0209 15.8697 71.6942 15.683 71.4142 15.443C71.1342 15.203 70.9142 14.9163 70.7542 14.583C70.5942 14.2363 70.5142 13.8497 70.5142 13.423C70.5142 12.823 70.6276 12.3297 70.8542 11.943C71.0809 11.5563 71.4342 11.243 71.9142 11.003C72.4076 10.7497 73.0342 10.563 73.7942 10.443C74.5676 10.323 75.5009 10.2363 76.5942 10.183C76.7009 9.03635 76.6542 8.19635 76.4542 7.66301C76.2542 7.12968 75.8209 6.86301 75.1542 6.86301C74.7409 6.86301 74.3609 6.92968 74.0142 7.06301L73.0742 9.46301H72.1942C72.0876 9.30301 71.9809 9.12301 71.8742 8.92301C71.7809 8.70968 71.6876 8.48968 71.5942 8.26301C71.5142 8.02301 71.4409 7.78301 71.3742 7.54301C71.3209 7.30301 71.2809 7.06968 71.2542 6.84301C71.7609 6.49635 72.4142 6.22301 73.2142 6.02301C74.0142 5.82301 74.8609 5.72301 75.7542 5.72301C76.5142 5.72301 77.1342 5.80968 77.6142 5.98301C78.0942 6.14301 78.4676 6.36968 78.7342 6.66301C79.0142 6.94301 79.2076 7.27635 79.3142 7.66301C79.4209 8.04968 79.4742 8.46301 79.4742 8.90301C79.4742 9.70301 79.4542 10.4297 79.4142 11.083C79.3876 11.723 79.3742 12.383 79.3742 13.063ZM74.8742 14.603C75.1542 14.603 75.3942 14.5497 75.5942 14.443C75.7942 14.3363 75.9609 14.2097 76.0942 14.063C76.2409 13.9163 76.3476 13.7563 76.4142 13.583C76.4942 13.4097 76.5542 13.2563 76.5942 13.123V11.123C75.9676 11.1363 75.4542 11.1763 75.0542 11.243C74.6542 11.3097 74.3409 11.423 74.1142 11.583C73.8876 11.7297 73.7276 11.923 73.6342 12.163C73.5542 12.3897 73.5142 12.6697 73.5142 13.003C73.5142 13.5097 73.6342 13.903 73.8742 14.183C74.1142 14.463 74.4476 14.603 74.8742 14.603ZM81.2671 6.44301C81.7737 6.12301 82.3071 5.89635 82.8671 5.76301V4.14301C82.9471 4.06301 83.0804 3.98968 83.2671 3.92301C83.4671 3.84301 83.6737 3.77635 83.8871 3.72301C84.1137 3.65635 84.3337 3.59635 84.5471 3.54301C84.7604 3.48968 84.9337 3.44968 85.0671 3.42301H85.7471V5.96301H88.3871V7.22301H85.7471V12.403C85.7471 13.2297 85.8471 13.803 86.0471 14.123C86.2604 14.443 86.6071 14.603 87.0871 14.603C87.3271 14.603 87.5937 14.5897 87.8871 14.563C88.1937 14.523 88.4737 14.4563 88.7271 14.363L88.8671 15.023C88.7471 15.143 88.5671 15.2697 88.3271 15.403C88.1004 15.5363 87.8337 15.663 87.5271 15.783C87.2337 15.903 86.9071 16.003 86.5471 16.083C86.2004 16.163 85.8337 16.203 85.4471 16.203C84.5804 16.203 83.9337 15.9763 83.5071 15.523C83.0804 15.0697 82.8671 14.3363 82.8671 13.323V7.22301H81.2671V6.44301ZM98.8153 14.283C98.7087 14.5097 98.5353 14.743 98.2953 14.983C98.0687 15.2097 97.782 15.4163 97.4353 15.603C97.102 15.7763 96.7087 15.9163 96.2553 16.023C95.8153 16.143 95.3353 16.203 94.8153 16.203C93.9887 16.203 93.2553 16.083 92.6153 15.843C91.9753 15.5897 91.442 15.2363 91.0153 14.783C90.5887 14.3163 90.262 13.763 90.0353 13.123C89.822 12.483 89.7153 11.763 89.7153 10.963C89.7153 9.25635 90.162 7.95635 91.0553 7.06301C91.9487 6.16968 93.1887 5.72301 94.7753 5.72301C95.4553 5.72301 96.0887 5.81635 96.6753 6.00301C97.2753 6.18968 97.7687 6.49635 98.1553 6.92301C98.5553 7.34968 98.8287 7.90968 98.9753 8.60301C99.1353 9.29635 99.1287 10.143 98.9553 11.143H92.8153C92.8287 12.1963 93.0953 13.0363 93.6153 13.663C94.1487 14.2897 94.9287 14.603 95.9553 14.603C96.3953 14.603 96.8487 14.5363 97.3153 14.403C97.7953 14.2697 98.1687 14.0963 98.4353 13.883L98.8153 14.283ZM94.6953 6.86301C94.4287 6.86301 94.1887 6.90968 93.9753 7.00301C93.7753 7.09635 93.5953 7.26968 93.4353 7.52301C93.2887 7.76301 93.1687 8.09635 93.0753 8.52301C92.982 8.93635 92.9153 9.46301 92.8753 10.103H96.0953C96.1887 9.06301 96.1287 8.26301 95.9153 7.70301C95.702 7.14301 95.2953 6.86301 94.6953 6.86301ZM107.278 13.983C107.211 14.2763 107.091 14.5563 106.918 14.823C106.744 15.0897 106.538 15.3297 106.298 15.543C106.058 15.743 105.784 15.903 105.478 16.023C105.171 16.143 104.844 16.203 104.498 16.203C103.178 16.203 102.171 15.7897 101.478 14.963C100.798 14.123 100.458 12.843 100.458 11.123C100.458 10.243 100.578 9.47635 100.818 8.82301C101.058 8.15635 101.391 7.59635 101.818 7.14301C102.258 6.68968 102.784 6.34968 103.398 6.12301C104.011 5.89635 104.691 5.78301 105.438 5.78301C105.678 5.78301 105.878 5.78968 106.038 5.80301C106.211 5.81635 106.364 5.83635 106.498 5.86301C106.644 5.87635 106.778 5.90968 106.898 5.96301C107.031 6.00301 107.178 6.04968 107.338 6.10301V2.58301L105.818 2.42301V1.64301C106.004 1.56301 106.258 1.48968 106.578 1.42301C106.911 1.35634 107.258 1.29634 107.618 1.24301C107.978 1.17634 108.331 1.11634 108.678 1.06301C109.024 1.00968 109.311 0.963012 109.538 0.923012H110.218V14.543L111.538 14.703V15.403C111.351 15.4963 111.111 15.583 110.818 15.663C110.524 15.743 110.218 15.8163 109.898 15.883C109.578 15.9497 109.264 16.003 108.958 16.043C108.664 16.0963 108.418 16.1363 108.218 16.163H107.538L107.358 13.983H107.278ZM105.458 14.603C105.924 14.603 106.318 14.4563 106.638 14.163C106.958 13.8697 107.191 13.3697 107.338 12.663V7.28301C107.164 7.17635 106.944 7.08968 106.678 7.02301C106.424 6.95635 106.104 6.92301 105.718 6.92301C104.944 6.92301 104.391 7.27635 104.058 7.98301C103.724 8.67635 103.558 9.68968 103.558 11.023C103.558 12.103 103.704 12.9697 103.998 13.623C104.291 14.2763 104.778 14.603 105.458 14.603Z" fill="#F4F4F1"/>
</svg>
